<svg id="Layer_1" data-name="Layer 1" xmlns="http://www.w3.org/2000/svg" viewBox="0 0 219.49 1030.65"><defs><style>.cls-1{fill:#8dd1c1;}.cls-2,.cls-6{opacity:0.8;}.cls-3{fill:#6b818c;}.cls-4{fill:none;stroke:#606060;stroke-miterlimit:10;stroke-width:0.5px;}.cls-5{fill:#231f20;}.cls-6{fill:#36605a;}.cls-7,.cls-8{fill:#fcca45;}.cls-8,.cls-9{opacity:0.7;}.cls-9{fill:#f57e30;}.cls-10{fill:#a04b23;}.cls-11{fill:#b3ad97;}.cls-12{fill:#dcdbdb;}</style></defs><title>salad</title><path class="cls-1" d="M1071.4,323.24l-1-.75v1.16H1017v0a14.14,14.14,0,0,1-14.14-14.07h0V210.71h0a9.07,9.07,0,0,0,9.07,9h55.4v0.79l1-.75,1-.75-1-.75-1-.75v0.94H1012a7.78,7.78,0,0,1-7.78-7.78h0V176.53h1.72v-22h-7.7v22h1.72V521.72l-56,73.23V847.5H946V595h0l56-73.23V310a15,15,0,0,0,15,14.53h53.36v1l1-.75,1-.75Z" transform="translate(-852.92 -117.05)"/><g class="cls-2"><path class="cls-3" d="M936.65,154.53v22h4.69l0.31,20a5,5,0,0,1-5,4.66H889.19v-3.76l-3.39,2.76L882.41,203l3.39,2.76,3.39,2.76v-3h47.46a9.35,9.35,0,0,0,9-6.86v93.93H945.6a13.83,13.83,0,0,1-13.83,13.83h-44.5v-2.93L885,305.58l-2.31,2.09,2.31,2.09,2.31,2.09v-2.95h44.5a16.31,16.31,0,0,0,16.29-15.49h0.1V405.65H950v-5.44l0,50a17.67,17.67,0,0,1-17.6,16.07H885.12v-1.57l-1.35,1-1.35,1,1.35,1,1.35,1V467.3h47.35v0a18.67,18.67,0,0,0,18.6-17.07l0.05,1v-3.5l0,3V564.86h0l-23,30.09V847.5h2.29V595h0l23-30.09,0.15-137.14h0V176.53h4.69v-22h-21.6Z" transform="translate(-852.92 -117.05)"/><path class="cls-3" d="M936.8,417H886.16v-2l-2,1.48-2,1.48,2,1.48,2,1.48v-2H936.8v0A13.23,13.23,0,0,0,950,405.75v-0.1h-1.87A11.36,11.36,0,0,1,936.8,417Z" transform="translate(-852.92 -117.05)"/></g><path class="cls-4" d="M1006.84,590.75" transform="translate(-852.92 -117.05)"/><path class="cls-4" d="M999.84,638.75" transform="translate(-852.92 -117.05)"/><line class="cls-4" x1="149.41" y1="841.44" y2="841.44"/><path class="cls-5" d="M858,953.51a1.78,1.78,0,0,1-.56,1.2,1.86,1.86,0,0,1-1.27.42,1.75,1.75,0,0,1-1-.28,1.8,1.8,0,0,1-.66-0.79,2.8,2.8,0,0,1-.24-1.16v-0.65a2.83,2.83,0,0,1,.23-1.18,1.79,1.79,0,0,1,.67-0.79,1.82,1.82,0,0,1,1-.28,1.78,1.78,0,0,1,1.26.43,1.8,1.8,0,0,1,.54,1.19h-0.42a1.27,1.27,0,0,0-1.38-1.27,1.3,1.3,0,0,0-1.08.51,2.19,2.19,0,0,0-.4,1.4v0.61a2.21,2.21,0,0,0,.39,1.38,1.26,1.26,0,0,0,1.06.51,1.4,1.4,0,0,0,1-.32,1.51,1.51,0,0,0,.41-0.95H858Z" transform="translate(-852.92 -117.05)"/><path class="cls-5" d="M858.74,953.16a2.18,2.18,0,0,1,.21-1,1.55,1.55,0,0,1,1.44-.9,1.52,1.52,0,0,1,1.2.52,2,2,0,0,1,.46,1.37v0.08a2.2,2.2,0,0,1-.21,1,1.54,1.54,0,0,1-.58.66,1.6,1.6,0,0,1-.86.23,1.52,1.52,0,0,1-1.19-.52,2,2,0,0,1-.46-1.37v-0.08Zm0.41,0.11a1.68,1.68,0,0,0,.34,1.09,1.16,1.16,0,0,0,1.8,0,1.74,1.74,0,0,0,.34-1.12v-0.08a1.87,1.87,0,0,0-.16-0.78,1.26,1.26,0,0,0-.44-0.54,1.13,1.13,0,0,0-.65-0.19,1.1,1.1,0,0,0-.89.43,1.74,1.74,0,0,0-.34,1.12v0.08Z" transform="translate(-852.92 -117.05)"/><path class="cls-5" d="M863.28,951.37V952a1.46,1.46,0,0,1,.52-0.52,1.34,1.34,0,0,1,.69-0.18,1.11,1.11,0,0,1,.89.33,1.51,1.51,0,0,1,.29,1v2.43h-0.41v-2.43a1.13,1.13,0,0,0-.21-0.74,0.82,0.82,0,0,0-.66-0.24,1,1,0,0,0-.67.24,1.4,1.4,0,0,0-.43.64v2.53h-0.41v-3.7h0.39Z" transform="translate(-852.92 -117.05)"/><path class="cls-5" d="M868.95,954.13a0.58,0.58,0,0,0-.24-0.49,1.9,1.9,0,0,0-.74-0.29,3.29,3.29,0,0,1-.76-0.24,1,1,0,0,1-.4-0.33,0.82,0.82,0,0,1-.13-0.47,0.88,0.88,0,0,1,.37-0.72,1.48,1.48,0,0,1,.94-0.29,1.53,1.53,0,0,1,1,.31,1,1,0,0,1,.37.8h-0.41a0.66,0.66,0,0,0-.27-0.54,1.22,1.22,0,0,0-1.33,0,0.55,0.55,0,0,0-.24.47,0.5,0.5,0,0,0,.2.43,2.14,2.14,0,0,0,.74.28,3.5,3.5,0,0,1,.81.27,1.05,1.05,0,0,1,.4.34,0.95,0.95,0,0,1-.25,1.24,1.61,1.61,0,0,1-1,.28,1.66,1.66,0,0,1-1-.31,1,1,0,0,1-.4-0.79H867a0.71,0.71,0,0,0,.3.56,1.24,1.24,0,0,0,.74.2,1.15,1.15,0,0,0,.69-0.19A0.56,0.56,0,0,0,868.95,954.13Z" transform="translate(-852.92 -117.05)"/><path class="cls-5" d="M872.66,954.6a1.33,1.33,0,0,1-1.18.54,1.14,1.14,0,0,1-.9-0.34,1.5,1.5,0,0,1-.31-1v-2.41h0.41v2.36a0.86,0.86,0,0,0,.86,1.06,1,1,0,0,0,1.12-.73v-2.68h0.41v3.7h-0.4V954.6Z" transform="translate(-852.92 -117.05)"/><path class="cls-5" d="M874.5,951.37V952a1.37,1.37,0,0,1,.51-0.5,1.4,1.4,0,0,1,.68-0.17,1,1,0,0,1,1.11.72,1.39,1.39,0,0,1,.53-0.53,1.47,1.47,0,0,1,.73-0.19,1.12,1.12,0,0,1,1.21,1.3v2.47h-0.41v-2.44a1.1,1.1,0,0,0-.21-0.74,0.87,0.87,0,0,0-.68-0.24,1.09,1.09,0,0,0-.75.29,1,1,0,0,0-.34.68v2.45h-0.41V952.6a1,1,0,0,0-.22-0.71,0.89,0.89,0,0,0-.68-0.23,1,1,0,0,0-.66.22,1.29,1.29,0,0,0-.41.65v2.54H874.1v-3.7h0.39Z" transform="translate(-852.92 -117.05)"/><path class="cls-5" d="M883.3,953.25a2.23,2.23,0,0,1-.38,1.37,1.22,1.22,0,0,1-1,.51,1.37,1.37,0,0,1-1.16-.53v1.89h-0.41v-5.12h0.38l0,0.52a1.31,1.31,0,0,1,1.16-.59,1.23,1.23,0,0,1,1,.5,2.28,2.28,0,0,1,.38,1.39v0.06Zm-0.41-.07a1.91,1.91,0,0,0-.29-1.12,0.94,0.94,0,0,0-.81-0.41,1.08,1.08,0,0,0-1.06.71v1.77a1.08,1.08,0,0,0,.42.49,1.2,1.2,0,0,0,.65.17,0.93,0.93,0,0,0,.8-0.41A2.07,2.07,0,0,0,882.89,953.18Z" transform="translate(-852.92 -117.05)"/><path class="cls-5" d="M884.84,950.42v0.95h0.77v0.33h-0.77v2.47a0.77,0.77,0,0,0,.11.46,0.43,0.43,0,0,0,.37.15l0.33,0,0,0.33a1.32,1.32,0,0,1-.44.06,0.73,0.73,0,0,1-.61-0.24,1.15,1.15,0,0,1-.19-0.72V951.7h-0.68v-0.33h0.68v-0.95h0.41Z" transform="translate(-852.92 -117.05)"/><path class="cls-5" d="M886.43,950.3a0.27,0.27,0,0,1,.07-0.19,0.27,0.27,0,0,1,.21-0.08,0.27,0.27,0,0,1,.21.08,0.28,0.28,0,0,1,0,.39,0.28,0.28,0,0,1-.21.08,0.27,0.27,0,0,1-.21-0.08A0.27,0.27,0,0,1,886.43,950.3Zm0.48,4.77H886.5v-3.7h0.41v3.7Z" transform="translate(-852.92 -117.05)"/><path class="cls-5" d="M887.8,953.16a2.18,2.18,0,0,1,.21-1,1.55,1.55,0,0,1,1.44-.9,1.52,1.52,0,0,1,1.2.52,2,2,0,0,1,.46,1.37v0.08a2.2,2.2,0,0,1-.21,1,1.54,1.54,0,0,1-.58.66,1.6,1.6,0,0,1-.86.23,1.52,1.52,0,0,1-1.19-.52,2,2,0,0,1-.46-1.37v-0.08Zm0.41,0.11a1.68,1.68,0,0,0,.34,1.09,1.16,1.16,0,0,0,1.8,0,1.74,1.74,0,0,0,.34-1.12v-0.08a1.87,1.87,0,0,0-.16-0.78,1.26,1.26,0,0,0-.44-0.54,1.13,1.13,0,0,0-.65-0.19,1.1,1.1,0,0,0-.89.43,1.74,1.74,0,0,0-.34,1.12v0.08Z" transform="translate(-852.92 -117.05)"/><path class="cls-5" d="M892.33,951.37V952a1.46,1.46,0,0,1,.52-0.52,1.34,1.34,0,0,1,.69-0.18,1.11,1.11,0,0,1,.89.33,1.51,1.51,0,0,1,.29,1v2.43h-0.41v-2.43a1.13,1.13,0,0,0-.21-0.74,0.82,0.82,0,0,0-.66-0.24,1,1,0,0,0-.67.24,1.4,1.4,0,0,0-.43.64v2.53h-0.41v-3.7h0.39Z" transform="translate(-852.92 -117.05)"/><line class="cls-4" x1="83.75" y1="38" x2="83.75"/><line class="cls-4" x1="41.73" y1="38" x2="41.73"/><line class="cls-4" x1="109.7" y1="38" x2="109.7"/><line class="cls-4" x1="134.7" y1="38" x2="134.7"/><line class="cls-4" x1="146.7" y1="38" x2="146.7" y2="18"/><path class="cls-5" d="M898.54,120.85a0.46,0.46,0,0,0-.17-0.37,1.73,1.73,0,0,0-.61-0.26,2.14,2.14,0,0,1-.64-0.27,0.66,0.66,0,0,1,0-1.07,1.1,1.1,0,0,1,.69-0.2,1.13,1.13,0,0,1,.51.11,0.82,0.82,0,0,1,.35.3,0.8,0.8,0,0,1,.12.44h-0.24a0.6,0.6,0,0,0-.2-0.47,0.77,0.77,0,0,0-.54-0.18,0.85,0.85,0,0,0-.52.15,0.46,0.46,0,0,0-.19.38,0.43,0.43,0,0,0,.17.35,1.62,1.62,0,0,0,.56.24,2.55,2.55,0,0,1,.58.22,0.82,0.82,0,0,1,.3.27,0.67,0.67,0,0,1,.1.37,0.64,0.64,0,0,1-.27.54,1.15,1.15,0,0,1-.71.2,1.4,1.4,0,0,1-.55-0.11,0.85,0.85,0,0,1-.38-0.3,0.78,0.78,0,0,1-.13-0.44H897a0.57,0.57,0,0,0,.22.47,1,1,0,0,0,.6.17,0.88,0.88,0,0,0,.53-0.15A0.46,0.46,0,0,0,898.54,120.85Z" transform="translate(-852.92 -117.05)"/><path class="cls-5" d="M900.95,120.51a1.27,1.27,0,0,1-.22.78,0.7,0.7,0,0,1-.59.29,0.78,0.78,0,0,1-.66-0.3v1.08h-0.23v-2.93h0.22v0.3a0.75,0.75,0,0,1,.66-0.34,0.7,0.7,0,0,1,.59.29,1.3,1.3,0,0,1,.22.8v0Zm-0.23,0a1.08,1.08,0,0,0-.17-0.64,0.53,0.53,0,0,0-.46-0.23,0.62,0.62,0,0,0-.61.4v1a0.63,0.63,0,0,0,.24.28,0.7,0.7,0,0,0,.37.1,0.53,0.53,0,0,0,.46-0.24A1.18,1.18,0,0,0,900.71,120.47Z" transform="translate(-852.92 -117.05)"/><path class="cls-5" d="M901.45,118.82a0.16,0.16,0,0,1,0-.11,0.18,0.18,0,0,1,.24,0,0.16,0.16,0,0,1,0,.11,0.15,0.15,0,0,1,0,.11,0.18,0.18,0,0,1-.24,0A0.15,0.15,0,0,1,901.45,118.82Zm0.28,2.72h-0.23v-2.11h0.23v2.11Z" transform="translate(-852.92 -117.05)"/><path class="cls-5" d="M902.58,119.43v0.36a0.84,0.84,0,0,1,.3-0.3,0.77,0.77,0,0,1,.39-0.1,0.63,0.63,0,0,1,.51.19,0.86,0.86,0,0,1,.17.57v1.39h-0.23v-1.39a0.64,0.64,0,0,0-.12-0.42,0.47,0.47,0,0,0-.38-0.14,0.59,0.59,0,0,0-.38.14,0.79,0.79,0,0,0-.25.37v1.45h-0.23v-2.11h0.22Z" transform="translate(-852.92 -117.05)"/><path class="cls-5" d="M905.89,121.55a1.12,1.12,0,0,1,0-.29,0.82,0.82,0,0,1-.31.25,1,1,0,0,1-.4.09,0.71,0.71,0,0,1-.49-0.17,0.56,0.56,0,0,1-.19-0.43,0.57,0.57,0,0,1,.26-0.49,1.23,1.23,0,0,1,.72-0.18h0.42v-0.24a0.46,0.46,0,0,0-.14-0.36,0.57,0.57,0,0,0-.41-0.13,0.64,0.64,0,0,0-.4.13,0.37,0.37,0,0,0-.16.3H904.5a0.54,0.54,0,0,1,.23-0.44,0.9,0.9,0,0,1,.58-0.18,0.82,0.82,0,0,1,.56.18,0.63,0.63,0,0,1,.21.49v1a1.24,1.24,0,0,0,.06.46v0h-0.25Zm-0.73-.17a0.79,0.79,0,0,0,.42-0.11,0.67,0.67,0,0,0,.27-0.3V120.5h-0.42a1,1,0,0,0-.55.13,0.38,0.38,0,0,0-.2.34,0.38,0.38,0,0,0,.13.29A0.5,0.5,0,0,0,905.16,121.38Z" transform="translate(-852.92 -117.05)"/><path class="cls-5" d="M907.48,121.39a0.62,0.62,0,0,0,.41-0.14,0.48,0.48,0,0,0,.18-0.36h0.22a0.66,0.66,0,0,1-.12.35,0.77,0.77,0,0,1-.3.25,0.9,0.9,0,0,1-.4.09,0.82,0.82,0,0,1-.66-0.29,1.17,1.17,0,0,1-.24-0.78v-0.07a1.33,1.33,0,0,1,.11-0.55,0.85,0.85,0,0,1,.31-0.37,0.86,0.86,0,0,1,.48-0.13,0.81,0.81,0,0,1,.57.21,0.75,0.75,0,0,1,.24.54h-0.22a0.57,0.57,0,0,0-.18-0.4,0.58,0.58,0,0,0-.41-0.15,0.58,0.58,0,0,0-.49.23,1,1,0,0,0-.17.64v0.07a1,1,0,0,0,.17.63A0.59,0.59,0,0,0,907.48,121.39Z" transform="translate(-852.92 -117.05)"/><path class="cls-5" d="M909,119.79a0.82,0.82,0,0,1,.29-0.29,0.77,0.77,0,0,1,.39-0.1,0.63,0.63,0,0,1,.51.19,0.86,0.86,0,0,1,.17.57v1.39h-0.23v-1.39a0.64,0.64,0,0,0-.12-0.42,0.47,0.47,0,0,0-.38-0.14,0.59,0.59,0,0,0-.38.14,0.79,0.79,0,0,0-.25.37v1.45h-0.23v-3H909v1.24Z" transform="translate(-852.92 -117.05)"/><path class="cls-5" d="M897.23,126.35H897V123.5h0.24v2.84Z" transform="translate(-852.92 -117.05)"/><path class="cls-5" d="M898.31,123.69v0.54h0.44v0.19h-0.44v1.41a0.44,0.44,0,0,0,.06.26,0.25,0.25,0,0,0,.21.09l0.19,0v0.19a0.75,0.75,0,0,1-.25,0,0.42,0.42,0,0,1-.35-0.14,0.66,0.66,0,0,1-.11-0.41v-1.41h-0.39v-0.19h0.39v-0.54h0.23Z" transform="translate(-852.92 -117.05)"/><path class="cls-5" d="M900.56,126.35a1.12,1.12,0,0,1,0-.29,0.82,0.82,0,0,1-.31.25,1,1,0,0,1-.4.09,0.71,0.71,0,0,1-.49-0.17,0.56,0.56,0,0,1-.19-0.43,0.57,0.57,0,0,1,.26-0.49,1.23,1.23,0,0,1,.72-0.18h0.42v-0.24a0.46,0.46,0,0,0-.14-0.36,0.57,0.57,0,0,0-.41-0.13,0.64,0.64,0,0,0-.4.13,0.37,0.37,0,0,0-.16.3h-0.23a0.54,0.54,0,0,1,.23-0.44,0.9,0.9,0,0,1,.58-0.18,0.82,0.82,0,0,1,.56.18,0.63,0.63,0,0,1,.21.49v1a1.24,1.24,0,0,0,.06.46v0h-0.25Zm-0.73-.17a0.79,0.79,0,0,0,.42-0.11,0.67,0.67,0,0,0,.27-0.3V125.3H900.1a1,1,0,0,0-.55.13,0.38,0.38,0,0,0-.2.34,0.38,0.38,0,0,0,.13.29A0.5,0.5,0,0,0,899.83,126.18Z" transform="translate(-852.92 -117.05)"/><path class="cls-5" d="M901.63,126.35H901.4v-3h0.23v3Z" transform="translate(-852.92 -117.05)"/><path class="cls-5" d="M902.94,126l0.62-1.78h0.25l-0.9,2.47,0,0.11a0.57,0.57,0,0,1-.54.38l-0.18,0V127h0.12a0.43,0.43,0,0,0,.28-0.08,0.64,0.64,0,0,0,.18-0.29l0.1-.29-0.8-2.1h0.26Z" transform="translate(-852.92 -117.05)"/><path class="cls-5" d="M897.36,129.6h0.24a0.8,0.8,0,0,0,.35-0.07,0.53,0.53,0,0,0,.23-0.2,0.52,0.52,0,0,0,.08-0.29,0.58,0.58,0,0,0-.15-0.43,0.6,0.6,0,0,0-.44-0.15,0.64,0.64,0,0,0-.45.16,0.55,0.55,0,0,0-.17.42h-0.23a0.76,0.76,0,0,1,.42-0.69,1,1,0,0,1,.44-0.1,0.85,0.85,0,0,1,.61.21,0.76,0.76,0,0,1,.22.58,0.61,0.61,0,0,1-.13.38,0.77,0.77,0,0,1-.36.26,0.73,0.73,0,0,1,.4.25,0.69,0.69,0,0,1,.14.43,0.76,0.76,0,0,1-.24.59,0.89,0.89,0,0,1-.64.22,1.06,1.06,0,0,1-.47-0.1,0.75,0.75,0,0,1-.44-0.71H897a0.57,0.57,0,0,0,.19.44,0.7,0.7,0,0,0,.49.17,0.67,0.67,0,0,0,.47-0.16,0.58,0.58,0,0,0,.17-0.45,0.53,0.53,0,0,0-.18-0.44,0.83,0.83,0,0,0-.54-0.15h-0.23v-0.2Z" transform="translate(-852.92 -117.05)"/><path class="cls-5" d="M900.84,131.15h-1.78V131l1-1.11a2.5,2.5,0,0,0,.34-0.46,0.77,0.77,0,0,0,.09-0.35,0.58,0.58,0,0,0-.16-0.43,0.59,0.59,0,0,0-.44-0.16,0.62,0.62,0,0,0-.46.18,0.66,0.66,0,0,0-.18.48H899a0.89,0.89,0,0,1,.11-0.44,0.79,0.79,0,0,1,.31-0.31,0.93,0.93,0,0,1,.46-0.11,0.86,0.86,0,0,1,.61.21,0.73,0.73,0,0,1,.22.56,0.94,0.94,0,0,1-.12.44,3.14,3.14,0,0,1-.44.59l-0.79.9h1.49v0.2Z" transform="translate(-852.92 -117.05)"/><path class="cls-5" d="M901.22,128.85a0.59,0.59,0,0,1,.16-0.42,0.56,0.56,0,0,1,.8,0,0.6,0.6,0,0,1,.16.43V129a0.59,0.59,0,0,1-.16.42,0.52,0.52,0,0,1-.4.17,0.54,0.54,0,0,1-.4-0.16,0.6,0.6,0,0,1-.16-0.43v-0.14Zm0.19,0.15a0.45,0.45,0,0,0,.1.3,0.34,0.34,0,0,0,.27.12,0.32,0.32,0,0,0,.26-0.12,0.46,0.46,0,0,0,.1-0.31v-0.14a0.44,0.44,0,0,0-.1-0.3,0.36,0.36,0,0,0-.53,0,0.46,0.46,0,0,0-.1.31V129Zm0.45,1.91-0.15-.09,1.39-2.22,0.15,0.09Zm0.8-.46a0.59,0.59,0,0,1,.16-0.42,0.53,0.53,0,0,1,.4-0.17,0.53,0.53,0,0,1,.4.17,0.6,0.6,0,0,1,.16.43v0.14a0.58,0.58,0,0,1-.16.42,0.52,0.52,0,0,1-.4.17,0.53,0.53,0,0,1-.4-0.17,0.59,0.59,0,0,1-.16-0.43v-0.14Zm0.19,0.15a0.45,0.45,0,0,0,.1.3,0.34,0.34,0,0,0,.27.12,0.33,0.33,0,0,0,.27-0.12,0.47,0.47,0,0,0,.1-0.31v-0.14a0.44,0.44,0,0,0-.1-0.3,0.37,0.37,0,0,0-.53,0,0.45,0.45,0,0,0-.1.31v0.14Z" transform="translate(-852.92 -117.05)"/><path class="cls-5" d="M940.56,120.31h-1.29l-0.29.8h-0.25l1.08-2.84H940l1.08,2.84h-0.25Zm-1.22-.2h1.14l-0.57-1.55Z" transform="translate(-852.92 -117.05)"/><path class="cls-5" d="M942,120.79l0.64-1.79h0.24l-0.79,2.11h-0.19L941.14,119h0.24Z" transform="translate(-852.92 -117.05)"/><path class="cls-5" d="M944.59,121.11a1.12,1.12,0,0,1,0-.29,0.82,0.82,0,0,1-.31.25,1,1,0,0,1-.4.09,0.71,0.71,0,0,1-.49-0.17,0.56,0.56,0,0,1-.19-0.43,0.57,0.57,0,0,1,.26-0.49,1.23,1.23,0,0,1,.72-0.18h0.42v-0.24a0.46,0.46,0,0,0-.14-0.36,0.57,0.57,0,0,0-.41-0.13,0.64,0.64,0,0,0-.4.13,0.37,0.37,0,0,0-.16.3H943.2a0.54,0.54,0,0,1,.23-0.44A0.9,0.9,0,0,1,944,119a0.82,0.82,0,0,1,.56.18,0.63,0.63,0,0,1,.21.49v1a1.24,1.24,0,0,0,.06.46v0h-0.25Zm-0.73-.17a0.79,0.79,0,0,0,.42-0.11,0.67,0.67,0,0,0,.27-0.3v-0.46h-0.42a1,1,0,0,0-.55.13,0.38,0.38,0,0,0-.2.34,0.38,0.38,0,0,0,.13.29A0.5,0.5,0,0,0,943.86,120.94Z" transform="translate(-852.92 -117.05)"/><path class="cls-5" d="M946.18,121a0.62,0.62,0,0,0,.41-0.14,0.48,0.48,0,0,0,.18-0.36H947a0.66,0.66,0,0,1-.12.35,0.77,0.77,0,0,1-.3.25,0.9,0.9,0,0,1-.4.09,0.82,0.82,0,0,1-.66-0.29,1.17,1.17,0,0,1-.24-0.78V120a1.33,1.33,0,0,1,.11-0.55,0.85,0.85,0,0,1,.31-0.37,0.86,0.86,0,0,1,.48-0.13,0.81,0.81,0,0,1,.57.21,0.75,0.75,0,0,1,.24.54h-0.22a0.57,0.57,0,0,0-.18-0.4,0.58,0.58,0,0,0-.41-0.15,0.58,0.58,0,0,0-.49.23,1,1,0,0,0-.17.64v0.07a1,1,0,0,0,.17.63A0.59,0.59,0,0,0,946.18,121Z" transform="translate(-852.92 -117.05)"/><path class="cls-5" d="M948.8,121.11a1.12,1.12,0,0,1,0-.29,0.82,0.82,0,0,1-.31.25,1,1,0,0,1-.4.09,0.71,0.71,0,0,1-.49-0.17,0.56,0.56,0,0,1-.19-0.43,0.57,0.57,0,0,1,.26-0.49,1.23,1.23,0,0,1,.72-0.18h0.42v-0.24a0.46,0.46,0,0,0-.14-0.36,0.57,0.57,0,0,0-.41-0.13,0.64,0.64,0,0,0-.4.13,0.37,0.37,0,0,0-.16.3h-0.23a0.54,0.54,0,0,1,.23-0.44,0.9,0.9,0,0,1,.58-0.18,0.82,0.82,0,0,1,.56.18,0.63,0.63,0,0,1,.21.49v1a1.24,1.24,0,0,0,.06.46v0H948.8Zm-0.73-.17a0.79,0.79,0,0,0,.42-0.11,0.67,0.67,0,0,0,.27-0.3v-0.46h-0.42a1,1,0,0,0-.55.13,0.38,0.38,0,0,0-.2.34,0.38,0.38,0,0,0,.13.29A0.5,0.5,0,0,0,948.06,120.94Z" transform="translate(-852.92 -117.05)"/><path class="cls-5" d="M949.51,120a1.27,1.27,0,0,1,.22-0.78,0.71,0.71,0,0,1,.6-0.29,0.73,0.73,0,0,1,.65.34v-1.19h0.23v3H951v-0.28a0.76,0.76,0,0,1-.66.32,0.71,0.71,0,0,1-.59-0.29,1.29,1.29,0,0,1-.22-0.79v0Zm0.24,0a1.11,1.11,0,0,0,.16.64,0.53,0.53,0,0,0,.46.23,0.63,0.63,0,0,0,.61-0.38v-1a0.62,0.62,0,0,0-.61-0.41,0.53,0.53,0,0,0-.46.23A1.18,1.18,0,0,0,949.75,120.07Z" transform="translate(-852.92 -117.05)"/><path class="cls-5" d="M951.7,120a1.25,1.25,0,0,1,.12-0.55,0.89,0.89,0,0,1,.82-0.52,0.87,0.87,0,0,1,.68.3,1.14,1.14,0,0,1,.26.78v0a1.25,1.25,0,0,1-.12.55,0.88,0.88,0,0,1-.33.38,0.92,0.92,0,0,1-.49.13,0.87,0.87,0,0,1-.68-0.3,1.14,1.14,0,0,1-.26-0.78v0Zm0.23,0.06a1,1,0,0,0,.2.62,0.66,0.66,0,0,0,1,0,1,1,0,0,0,.2-0.64v0a1.06,1.06,0,0,0-.09-0.44,0.71,0.71,0,0,0-.25-0.31,0.64,0.64,0,0,0-.37-0.11,0.62,0.62,0,0,0-.51.25,1,1,0,0,0-.2.64v0Z" transform="translate(-852.92 -117.05)"/><path class="cls-5" d="M939.26,124.75v1.16H939v-2.84h1a1,1,0,0,1,.7.23,0.89,0.89,0,0,1,0,1.24,1.05,1.05,0,0,1-.72.22h-0.72Zm0-.2H940a0.77,0.77,0,0,0,.53-0.17,0.59,0.59,0,0,0,.18-0.46,0.62,0.62,0,0,0-.18-0.47,0.73,0.73,0,0,0-.52-0.18h-0.74v1.28Z" transform="translate(-852.92 -117.05)"/><path class="cls-5" d="M942.22,125.95a0.92,0.92,0,0,1-.49-0.13,0.91,0.91,0,0,1-.34-0.37,1.16,1.16,0,0,1-.12-0.53v-0.08a1.25,1.25,0,0,1,.12-0.55,0.94,0.94,0,0,1,.33-0.38,0.81,0.81,0,0,1,.46-0.14,0.76,0.76,0,0,1,.61.26,1.06,1.06,0,0,1,.23.72v0.13h-1.51v0a0.89,0.89,0,0,0,.21.6,0.66,0.66,0,0,0,.52.24,0.77,0.77,0,0,0,.33-0.07,0.74,0.74,0,0,0,.26-0.22l0.15,0.11A0.85,0.85,0,0,1,942.22,125.95Zm0-2a0.59,0.59,0,0,0-.44.19,0.9,0.9,0,0,0-.22.52h1.27v0a0.77,0.77,0,0,0-.17-0.5A0.54,0.54,0,0,0,942.18,124Z" transform="translate(-852.92 -117.05)"/><path class="cls-5" d="M944.45,124h-0.16a0.57,0.57,0,0,0-.37.12,0.67,0.67,0,0,0-.22.35v1.45h-0.23V123.8h0.23v0.34a0.62,0.62,0,0,1,.6-0.37,0.37,0.37,0,0,1,.15,0V124Z" transform="translate(-852.92 -117.05)"/><path class="cls-5" d="M946.17,125.64a0.76,0.76,0,0,1-.67.31,0.65,0.65,0,0,1-.51-0.2,0.86,0.86,0,0,1-.18-0.58V123.8H945v1.35a0.49,0.49,0,0,0,.49.6,0.6,0.6,0,0,0,.64-0.42V123.8h0.23v2.11h-0.23v-0.27Z" transform="translate(-852.92 -117.05)"/><path class="cls-5" d="M940,130.71h-0.23v-2.56l-0.77.29v-0.22l1-.36h0v2.85Z" transform="translate(-852.92 -117.05)"/><path class="cls-5" d="M941.67,129.16h0.24a0.8,0.8,0,0,0,.35-0.07,0.53,0.53,0,0,0,.23-0.2,0.52,0.52,0,0,0,.08-0.29,0.58,0.58,0,0,0-.15-0.43A0.6,0.6,0,0,0,942,128a0.64,0.64,0,0,0-.45.16,0.55,0.55,0,0,0-.17.42h-0.23a0.76,0.76,0,0,1,.42-0.69,1,1,0,0,1,.44-0.1,0.85,0.85,0,0,1,.61.21,0.76,0.76,0,0,1,.22.58,0.61,0.61,0,0,1-.13.38,0.77,0.77,0,0,1-.36.26,0.73,0.73,0,0,1,.4.25,0.69,0.69,0,0,1,.14.43,0.76,0.76,0,0,1-.24.59,0.89,0.89,0,0,1-.64.22,1.06,1.06,0,0,1-.47-0.1,0.75,0.75,0,0,1-.44-0.71h0.23a0.57,0.57,0,0,0,.19.44,0.7,0.7,0,0,0,.49.17,0.67,0.67,0,0,0,.47-0.16,0.58,0.58,0,0,0,.17-0.45,0.53,0.53,0,0,0-.18-0.44,0.83,0.83,0,0,0-.54-0.15h-0.23v-0.2Z" transform="translate(-852.92 -117.05)"/><path class="cls-5" d="M943.31,128.41a0.59,0.59,0,0,1,.16-0.42,0.56,0.56,0,0,1,.8,0,0.6,0.6,0,0,1,.16.43v0.14a0.59,0.59,0,0,1-.16.42,0.52,0.52,0,0,1-.4.17,0.54,0.54,0,0,1-.4-0.16,0.6,0.6,0,0,1-.16-0.43v-0.14Zm0.19,0.15a0.45,0.45,0,0,0,.1.3,0.34,0.34,0,0,0,.27.12,0.32,0.32,0,0,0,.26-0.12,0.46,0.46,0,0,0,.1-0.31v-0.14a0.44,0.44,0,0,0-.1-0.3,0.36,0.36,0,0,0-.53,0,0.46,0.46,0,0,0-.1.31v0.14Zm0.45,1.91-0.15-.09,1.39-2.22,0.15,0.09Zm0.8-.46a0.59,0.59,0,0,1,.16-0.42,0.53,0.53,0,0,1,.4-0.17,0.53,0.53,0,0,1,.4.17,0.6,0.6,0,0,1,.16.43v0.14a0.58,0.58,0,0,1-.16.42,0.52,0.52,0,0,1-.4.17,0.53,0.53,0,0,1-.4-0.17,0.59,0.59,0,0,1-.16-0.43V130Zm0.19,0.15a0.45,0.45,0,0,0,.1.3,0.34,0.34,0,0,0,.27.12,0.33,0.33,0,0,0,.27-0.12,0.47,0.47,0,0,0,.1-0.31V130a0.44,0.44,0,0,0-.1-0.3,0.37,0.37,0,0,0-.53,0,0.45,0.45,0,0,0-.1.31v0.14Z" transform="translate(-852.92 -117.05)"/><path class="cls-5" d="M966.75,118.17h-1v2.64h-0.24v-2.64h-1V118h2.19v0.2Z" transform="translate(-852.92 -117.05)"/><path class="cls-5" d="M966.83,119.72a1.24,1.24,0,0,1,.12-0.55,0.89,0.89,0,0,1,.82-0.52,0.87,0.87,0,0,1,.68.3,1.14,1.14,0,0,1,.26.78v0a1.27,1.27,0,0,1-.12.55,0.89,0.89,0,0,1-.33.38,0.92,0.92,0,0,1-.49.13,0.87,0.87,0,0,1-.68-0.3,1.13,1.13,0,0,1-.26-0.78v0Zm0.23,0.06a1,1,0,0,0,.2.62,0.66,0.66,0,0,0,1,0,1,1,0,0,0,.2-0.64v0a1.08,1.08,0,0,0-.09-0.44,0.73,0.73,0,0,0-.25-0.31,0.64,0.64,0,0,0-.37-0.11,0.62,0.62,0,0,0-.51.25,1,1,0,0,0-.2.64v0Z" transform="translate(-852.92 -117.05)"/><path class="cls-5" d="M969.41,118.69V119a0.78,0.78,0,0,1,.29-0.29,0.8,0.8,0,0,1,.39-0.1,0.59,0.59,0,0,1,.63.41,0.78,0.78,0,0,1,.3-0.3,0.83,0.83,0,0,1,.42-0.11,0.64,0.64,0,0,1,.69.74v1.41h-0.23v-1.39a0.63,0.63,0,0,0-.12-0.42,0.5,0.5,0,0,0-.39-0.14,0.62,0.62,0,0,0-.43.16,0.57,0.57,0,0,0-.19.39v1.4h-0.23V119.4a0.58,0.58,0,0,0-.13-0.41,0.51,0.51,0,0,0-.39-0.13,0.59,0.59,0,0,0-.38.13,0.74,0.74,0,0,0-.23.37v1.45h-0.23v-2.11h0.22Z" transform="translate(-852.92 -117.05)"/><path class="cls-5" d="M974.08,120.81a1.08,1.08,0,0,1,0-.29,0.82,0.82,0,0,1-.31.25,1,1,0,0,1-.4.09,0.71,0.71,0,0,1-.49-0.17,0.55,0.55,0,0,1-.19-0.43,0.56,0.56,0,0,1,.26-0.49,1.23,1.23,0,0,1,.72-0.18H974v-0.24a0.46,0.46,0,0,0-.14-0.36,0.58,0.58,0,0,0-.41-0.13,0.63,0.63,0,0,0-.4.13,0.37,0.37,0,0,0-.16.3h-0.23a0.54,0.54,0,0,1,.23-0.44,0.9,0.9,0,0,1,.58-0.18,0.82,0.82,0,0,1,.56.18,0.63,0.63,0,0,1,.21.49v1a1.24,1.24,0,0,0,.06.46v0h-0.25Zm-0.73-.17a0.79,0.79,0,0,0,.42-0.11,0.68,0.68,0,0,0,.27-0.3v-0.46h-0.42a1,1,0,0,0-.55.13,0.38,0.38,0,0,0-.2.34,0.38,0.38,0,0,0,.13.29A0.5,0.5,0,0,0,973.35,120.64Z" transform="translate(-852.92 -117.05)"/><path class="cls-5" d="M975.25,118.15v0.54h0.44v0.19h-0.44v1.41a0.44,0.44,0,0,0,.06.26,0.25,0.25,0,0,0,.21.09l0.19,0v0.19a0.75,0.75,0,0,1-.25,0,0.42,0.42,0,0,1-.35-0.14,0.66,0.66,0,0,1-.11-0.41v-1.41h-0.39v-0.19H975v-0.54h0.23Z" transform="translate(-852.92 -117.05)"/><path class="cls-5" d="M976,119.72a1.24,1.24,0,0,1,.12-0.55,0.89,0.89,0,0,1,.82-0.52,0.87,0.87,0,0,1,.68.3,1.14,1.14,0,0,1,.26.78v0a1.27,1.27,0,0,1-.12.55,0.89,0.89,0,0,1-.33.38,0.92,0.92,0,0,1-.49.13,0.87,0.87,0,0,1-.68-0.3,1.13,1.13,0,0,1-.26-0.78v0Zm0.23,0.06a1,1,0,0,0,.2.62,0.66,0.66,0,0,0,1,0,1,1,0,0,0,.2-0.64v0a1.08,1.08,0,0,0-.09-0.44,0.73,0.73,0,0,0-.25-0.31,0.64,0.64,0,0,0-.37-0.11,0.62,0.62,0,0,0-.51.25,1,1,0,0,0-.2.64v0Z" transform="translate(-852.92 -117.05)"/><path class="cls-5" d="M966.94,125.61H966.7l-1.63-2.43v2.43h-0.24v-2.84h0.24l1.64,2.44v-2.44h0.24v2.84Z" transform="translate(-852.92 -117.05)"/><path class="cls-5" d="M968.42,125.64a0.92,0.92,0,0,1-.49-0.13,0.9,0.9,0,0,1-.34-0.37,1.15,1.15,0,0,1-.12-0.53v-0.08a1.24,1.24,0,0,1,.12-0.55,0.93,0.93,0,0,1,.33-0.38,0.81,0.81,0,0,1,.46-0.14,0.76,0.76,0,0,1,.61.26,1.06,1.06,0,0,1,.23.72v0.13h-1.51v0a0.88,0.88,0,0,0,.21.6,0.65,0.65,0,0,0,.52.24,0.77,0.77,0,0,0,.33-0.07,0.74,0.74,0,0,0,.26-0.22l0.15,0.11A0.85,0.85,0,0,1,968.42,125.64Zm0-2a0.58,0.58,0,0,0-.44.19,0.88,0.88,0,0,0-.22.52H969v0a0.78,0.78,0,0,0-.17-0.5A0.54,0.54,0,0,0,968.38,123.65Z" transform="translate(-852.92 -117.05)"/><path class="cls-5" d="M970,123v0.54h0.44v0.19H970v1.41a0.44,0.44,0,0,0,.06.26,0.25,0.25,0,0,0,.21.09l0.19,0v0.19a0.75,0.75,0,0,1-.25,0,0.42,0.42,0,0,1-.35-0.14,0.66,0.66,0,0,1-.11-0.41v-1.41h-0.39v-0.19h0.39V123H970Z" transform="translate(-852.92 -117.05)"/><path class="cls-5" d="M971.19,123.85a0.81,0.81,0,0,1,.29-0.29,0.77,0.77,0,0,1,.39-0.1,0.63,0.63,0,0,1,.51.19,0.87,0.87,0,0,1,.17.57v1.39h-0.23v-1.39a0.65,0.65,0,0,0-.12-0.42,0.47,0.47,0,0,0-.38-0.14,0.59,0.59,0,0,0-.38.14,0.78,0.78,0,0,0-.25.37v1.45H971v-3h0.23v1.24Z" transform="translate(-852.92 -117.05)"/><path class="cls-5" d="M974,125.64a0.92,0.92,0,0,1-.49-0.13,0.9,0.9,0,0,1-.34-0.37,1.15,1.15,0,0,1-.12-0.53v-0.08a1.24,1.24,0,0,1,.12-0.55,0.93,0.93,0,0,1,.33-0.38,0.81,0.81,0,0,1,.46-0.14,0.76,0.76,0,0,1,.61.26,1.06,1.06,0,0,1,.23.72v0.13h-1.51v0a0.88,0.88,0,0,0,.21.6,0.65,0.65,0,0,0,.52.24,0.77,0.77,0,0,0,.33-0.07,0.74,0.74,0,0,0,.26-0.22l0.15,0.11A0.85,0.85,0,0,1,974,125.64Zm0-2a0.58,0.58,0,0,0-.44.19,0.88,0.88,0,0,0-.22.52h1.27v0a0.78,0.78,0,0,0-.17-0.5A0.54,0.54,0,0,0,973.93,123.65Z" transform="translate(-852.92 -117.05)"/><path class="cls-5" d="M976.2,123.69H976a0.57,0.57,0,0,0-.37.12,0.66,0.66,0,0,0-.22.35v1.45h-0.23v-2.11h0.23v0.34a0.62,0.62,0,0,1,.6-0.37,0.38,0.38,0,0,1,.15,0v0.21Z" transform="translate(-852.92 -117.05)"/><path class="cls-5" d="M976.83,125.61h-0.23v-3h0.23v3Z" transform="translate(-852.92 -117.05)"/><path class="cls-5" d="M978.79,125.61a1.08,1.08,0,0,1,0-.29,0.82,0.82,0,0,1-.31.25,1,1,0,0,1-.4.09,0.71,0.71,0,0,1-.49-0.17,0.55,0.55,0,0,1-.19-0.43,0.56,0.56,0,0,1,.26-0.49,1.23,1.23,0,0,1,.72-0.18h0.42v-0.24a0.46,0.46,0,0,0-.14-0.36,0.58,0.58,0,0,0-.41-0.13,0.63,0.63,0,0,0-.4.13,0.37,0.37,0,0,0-.16.3H977.4a0.54,0.54,0,0,1,.23-0.44,0.9,0.9,0,0,1,.58-0.18,0.82,0.82,0,0,1,.56.18,0.63,0.63,0,0,1,.21.49v1a1.24,1.24,0,0,0,.06.46v0h-0.25Zm-0.73-.17a0.79,0.79,0,0,0,.42-0.11,0.68,0.68,0,0,0,.27-0.3v-0.46h-0.42a1,1,0,0,0-.55.13,0.38,0.38,0,0,0-.2.34,0.38,0.38,0,0,0,.13.29A0.5,0.5,0,0,0,978.06,125.44Z" transform="translate(-852.92 -117.05)"/><path class="cls-5" d="M979.83,123.49v0.36a0.83,0.83,0,0,1,.3-0.3,0.77,0.77,0,0,1,.39-0.1,0.63,0.63,0,0,1,.51.19,0.87,0.87,0,0,1,.17.57v1.39H981v-1.39a0.65,0.65,0,0,0-.12-0.42,0.47,0.47,0,0,0-.38-0.14,0.59,0.59,0,0,0-.38.14,0.78,0.78,0,0,0-.25.37v1.45H979.6v-2.11h0.22Z" transform="translate(-852.92 -117.05)"/><path class="cls-5" d="M981.71,124.53a1.27,1.27,0,0,1,.22-0.78,0.7,0.7,0,0,1,.6-0.29,0.73,0.73,0,0,1,.65.34v-1.19h0.23v3h-0.22v-0.28a0.76,0.76,0,0,1-.66.32,0.7,0.7,0,0,1-.59-0.29,1.28,1.28,0,0,1-.22-0.79v0Zm0.24,0a1.1,1.1,0,0,0,.16.64,0.52,0.52,0,0,0,.46.23,0.63,0.63,0,0,0,.61-0.38v-1a0.62,0.62,0,0,0-.61-0.41,0.53,0.53,0,0,0-.46.23A1.18,1.18,0,0,0,981.94,124.57Z" transform="translate(-852.92 -117.05)"/><path class="cls-5" d="M985.29,125.07a0.33,0.33,0,0,0-.14-0.28,1.07,1.07,0,0,0-.42-0.17,2,2,0,0,1-.44-0.14,0.58,0.58,0,0,1-.23-0.19A0.47,0.47,0,0,1,984,124a0.5,0.5,0,0,1,.21-0.41,0.84,0.84,0,0,1,.54-0.16,0.87,0.87,0,0,1,.57.17,0.56,0.56,0,0,1,.21.46h-0.23a0.38,0.38,0,0,0-.16-0.31,0.7,0.7,0,0,0-.76,0,0.31,0.31,0,0,0-.14.27,0.29,0.29,0,0,0,.12.25,1.25,1.25,0,0,0,.42.16,2,2,0,0,1,.46.15,0.6,0.6,0,0,1,.23.2,0.54,0.54,0,0,1-.14.71,0.93,0.93,0,0,1-.56.16,1,1,0,0,1-.6-0.18,0.55,0.55,0,0,1-.23-0.45h0.23a0.4,0.4,0,0,0,.17.32,0.7,0.7,0,0,0,.42.11,0.67,0.67,0,0,0,.39-0.11A0.32,0.32,0,0,0,985.29,125.07Z" transform="translate(-852.92 -117.05)"/><path class="cls-5" d="M965.82,130.41h-0.23v-2.56l-0.77.29v-0.22l1-.36h0v2.85Z" transform="translate(-852.92 -117.05)"/><path class="cls-5" d="M967.46,128.86h0.24a0.81,0.81,0,0,0,.35-0.07,0.53,0.53,0,0,0,.23-0.2,0.52,0.52,0,0,0,.08-0.29,0.58,0.58,0,0,0-.15-0.43,0.6,0.6,0,0,0-.44-0.15,0.63,0.63,0,0,0-.45.16,0.55,0.55,0,0,0-.17.42h-0.23a0.76,0.76,0,0,1,.11-0.4,0.75,0.75,0,0,1,.31-0.28,1,1,0,0,1,.44-0.1,0.85,0.85,0,0,1,.61.21,0.76,0.76,0,0,1,.22.58,0.62,0.62,0,0,1-.13.38,0.78,0.78,0,0,1-.36.26,0.74,0.74,0,0,1,.4.25,0.7,0.7,0,0,1,.14.43,0.77,0.77,0,0,1-.24.59,0.9,0.9,0,0,1-.64.22,1.05,1.05,0,0,1-.47-0.1,0.75,0.75,0,0,1-.44-0.71h0.23a0.56,0.56,0,0,0,.19.44,0.7,0.7,0,0,0,.49.17,0.67,0.67,0,0,0,.47-0.16,0.58,0.58,0,0,0,.17-0.45,0.54,0.54,0,0,0-.18-0.44,0.84,0.84,0,0,0-.54-0.15h-0.23v-0.2Z" transform="translate(-852.92 -117.05)"/><path class="cls-5" d="M969.11,128.11a0.59,0.59,0,0,1,.16-0.42,0.56,0.56,0,0,1,.8,0,0.61,0.61,0,0,1,.16.43v0.14a0.59,0.59,0,0,1-.16.42,0.52,0.52,0,0,1-.4.17,0.54,0.54,0,0,1-.4-0.16,0.59,0.59,0,0,1-.16-0.43v-0.14Zm0.19,0.15a0.44,0.44,0,0,0,.1.3,0.34,0.34,0,0,0,.27.12,0.33,0.33,0,0,0,.26-0.12,0.46,0.46,0,0,0,.1-0.31v-0.14a0.45,0.45,0,0,0-.1-0.3,0.36,0.36,0,0,0-.53,0,0.46,0.46,0,0,0-.1.31v0.14Zm0.45,1.91-0.15-.09,1.39-2.22,0.15,0.09Zm0.8-.46a0.59,0.59,0,0,1,.16-0.42,0.52,0.52,0,0,1,.4-0.17,0.53,0.53,0,0,1,.4.17,0.6,0.6,0,0,1,.16.43v0.14a0.59,0.59,0,0,1-.16.42,0.52,0.52,0,0,1-.4.17,0.53,0.53,0,0,1-.4-0.17,0.59,0.59,0,0,1-.16-0.43v-0.14Zm0.19,0.15a0.45,0.45,0,0,0,.1.3,0.34,0.34,0,0,0,.27.12,0.33,0.33,0,0,0,.27-0.12,0.47,0.47,0,0,0,.1-0.31v-0.14a0.45,0.45,0,0,0-.1-0.3,0.37,0.37,0,0,0-.53,0,0.45,0.45,0,0,0-.1.31v0.14Z" transform="translate(-852.92 -117.05)"/><path class="cls-5" d="M990.89,120.37l0.09,0.44,0.11-.42,0.62-2.1h0.22l0.61,2.1,0.11,0.43,0.09-.45,0.51-2.08h0.25l-0.73,2.84h-0.23l-0.64-2.22-0.07-.28-0.07.28-0.66,2.22h-0.23l-0.73-2.84h0.25Z" transform="translate(-852.92 -117.05)"/><path class="cls-5" d="M995.16,121.13a1.08,1.08,0,0,1,0-.29,0.82,0.82,0,0,1-.31.25,1,1,0,0,1-.4.09,0.71,0.71,0,0,1-.49-0.17,0.55,0.55,0,0,1-.19-0.43,0.56,0.56,0,0,1,.26-0.49,1.23,1.23,0,0,1,.72-0.18h0.42v-0.24a0.46,0.46,0,0,0-.14-0.36,0.58,0.58,0,0,0-.41-0.13,0.63,0.63,0,0,0-.4.13,0.37,0.37,0,0,0-.16.3h-0.23a0.54,0.54,0,0,1,.23-0.44,0.9,0.9,0,0,1,.58-0.18,0.82,0.82,0,0,1,.56.18,0.63,0.63,0,0,1,.21.49v1a1.24,1.24,0,0,0,.06.46v0h-0.25Zm-0.73-.17a0.79,0.79,0,0,0,.42-0.11,0.68,0.68,0,0,0,.27-0.3v-0.46H994.7a1,1,0,0,0-.55.13,0.38,0.38,0,0,0-.2.34,0.38,0.38,0,0,0,.13.29A0.5,0.5,0,0,0,994.43,121Z" transform="translate(-852.92 -117.05)"/><path class="cls-5" d="M996.23,121.13H996v-3h0.23v3Z" transform="translate(-852.92 -117.05)"/><path class="cls-5" d="M997.09,119v0.36a0.83,0.83,0,0,1,.3-0.3,0.77,0.77,0,0,1,.39-0.1,0.63,0.63,0,0,1,.51.19,0.87,0.87,0,0,1,.17.57v1.39h-0.23v-1.39a0.65,0.65,0,0,0-.12-0.42,0.47,0.47,0,0,0-.38-0.14,0.59,0.59,0,0,0-.38.14,0.78,0.78,0,0,0-.25.37v1.45h-0.23V119h0.22Z" transform="translate(-852.92 -117.05)"/><path class="cls-5" d="M1000.43,120.87a0.76,0.76,0,0,1-.67.31,0.65,0.65,0,0,1-.51-0.2,0.86,0.86,0,0,1-.18-0.58V119h0.23v1.35a0.49,0.49,0,0,0,.49.6,0.6,0.6,0,0,0,.64-0.42V119h0.23v2.11h-0.23v-0.27Z" transform="translate(-852.92 -117.05)"/><path class="cls-5" d="M1001.63,118.48V119h0.44v0.19h-0.44v1.41a0.44,0.44,0,0,0,.06.26,0.25,0.25,0,0,0,.21.09l0.19,0v0.19a0.75,0.75,0,0,1-.25,0,0.42,0.42,0,0,1-.35-0.14,0.66,0.66,0,0,1-.11-0.41v-1.41H1001V119h0.39v-0.54h0.23Z" transform="translate(-852.92 -117.05)"/><path class="cls-5" d="M1003.81,120.6a0.33,0.33,0,0,0-.14-0.28,1.07,1.07,0,0,0-.42-0.17,2,2,0,0,1-.44-0.14,0.58,0.58,0,0,1-.23-0.19,0.47,0.47,0,0,1-.08-0.27,0.5,0.5,0,0,1,.21-0.41,0.84,0.84,0,0,1,.54-0.16,0.87,0.87,0,0,1,.57.17,0.56,0.56,0,0,1,.21.46h-0.23a0.38,0.38,0,0,0-.16-0.31,0.7,0.7,0,0,0-.76,0,0.31,0.31,0,0,0-.14.27,0.29,0.29,0,0,0,.12.25,1.25,1.25,0,0,0,.42.16,2,2,0,0,1,.46.15,0.6,0.6,0,0,1,.23.2,0.54,0.54,0,0,1-.14.71,0.93,0.93,0,0,1-.56.16,1,1,0,0,1-.6-0.18,0.55,0.55,0,0,1-.23-0.45h0.23a0.4,0.4,0,0,0,.17.32,0.7,0.7,0,0,0,.42.11,0.67,0.67,0,0,0,.39-0.11A0.32,0.32,0,0,0,1003.81,120.6Z" transform="translate(-852.92 -117.05)"/><path class="cls-5" d="M991.93,124.6H990.6v1.33h-0.24v-2.84h1.76v0.2H990.6v1.11h1.33v0.2Z" transform="translate(-852.92 -117.05)"/><path class="cls-5" d="M993.48,124h-0.16a0.57,0.57,0,0,0-.37.12,0.66,0.66,0,0,0-.22.35v1.45h-0.23v-2.11h0.23v0.34a0.62,0.62,0,0,1,.6-0.37,0.38,0.38,0,0,1,.15,0V124Z" transform="translate(-852.92 -117.05)"/><path class="cls-5" d="M995.11,125.93a1.08,1.08,0,0,1,0-.29,0.82,0.82,0,0,1-.31.25,1,1,0,0,1-.4.09,0.71,0.71,0,0,1-.49-0.17,0.55,0.55,0,0,1-.19-0.43,0.56,0.56,0,0,1,.26-0.49,1.23,1.23,0,0,1,.72-0.18h0.42v-0.24a0.46,0.46,0,0,0-.14-0.36,0.58,0.58,0,0,0-.41-0.13,0.63,0.63,0,0,0-.4.13,0.37,0.37,0,0,0-.16.3h-0.23A0.54,0.54,0,0,1,994,124a0.9,0.9,0,0,1,.58-0.18,0.82,0.82,0,0,1,.56.18,0.63,0.63,0,0,1,.21.49v1a1.24,1.24,0,0,0,.06.46v0h-0.25Zm-0.73-.17a0.79,0.79,0,0,0,.42-0.11,0.68,0.68,0,0,0,.27-0.3v-0.46h-0.42a1,1,0,0,0-.55.13,0.38,0.38,0,0,0-.2.34,0.38,0.38,0,0,0,.13.29A0.5,0.5,0,0,0,994.38,125.77Z" transform="translate(-852.92 -117.05)"/><path class="cls-5" d="M996.14,123.82v0.36a0.83,0.83,0,0,1,.3-0.3,0.77,0.77,0,0,1,.39-0.1,0.63,0.63,0,0,1,.51.19,0.87,0.87,0,0,1,.17.57v1.39h-0.23v-1.39a0.65,0.65,0,0,0-.12-0.42,0.47,0.47,0,0,0-.38-0.14,0.59,0.59,0,0,0-.38.14,0.78,0.78,0,0,0-.25.37v1.45h-0.23v-2.11h0.22Z" transform="translate(-852.92 -117.05)"/><path class="cls-5" d="M998.9,125.78a0.62,0.62,0,0,0,.41-0.14,0.49,0.49,0,0,0,.18-0.36h0.22a0.67,0.67,0,0,1-.12.35,0.77,0.77,0,0,1-.3.25,0.9,0.9,0,0,1-.4.09,0.82,0.82,0,0,1-.66-0.29,1.17,1.17,0,0,1-.24-0.78v-0.07a1.31,1.31,0,0,1,.11-0.55,0.83,0.83,0,0,1,.31-0.37,0.86,0.86,0,0,1,.48-0.13,0.81,0.81,0,0,1,.57.21,0.76,0.76,0,0,1,.24.54h-0.22a0.57,0.57,0,0,0-.59-0.55,0.58,0.58,0,0,0-.49.23,1,1,0,0,0-.17.64v0.07a1,1,0,0,0,.17.63A0.59,0.59,0,0,0,998.9,125.78Z" transform="translate(-852.92 -117.05)"/><path class="cls-5" d="M1001,126a0.92,0.92,0,0,1-.49-0.13,0.9,0.9,0,0,1-.34-0.37,1.15,1.15,0,0,1-.12-0.53v-0.08a1.24,1.24,0,0,1,.12-0.55,0.93,0.93,0,0,1,.33-0.38,0.81,0.81,0,0,1,.46-0.14,0.76,0.76,0,0,1,.61.26,1.06,1.06,0,0,1,.23.72v0.13h-1.51v0a0.88,0.88,0,0,0,.21.6,0.65,0.65,0,0,0,.52.24,0.77,0.77,0,0,0,.33-0.07,0.74,0.74,0,0,0,.26-0.22l0.15,0.11A0.85,0.85,0,0,1,1001,126Zm0-2a0.58,0.58,0,0,0-.44.19,0.88,0.88,0,0,0-.22.52h1.27v0a0.78,0.78,0,0,0-.17-0.5A0.54,0.54,0,0,0,1001,124Z" transform="translate(-852.92 -117.05)"/><path class="cls-5" d="M991.71,129.82h0.44V130h-0.44v0.72h-0.23V130h-1.34v-0.13l1.32-2h0.26v1.93Zm-1.29,0h1.05v-1.62l-0.1.18Z" transform="translate(-852.92 -117.05)"/><path class="cls-5" d="M992.43,128.44a0.59,0.59,0,0,1,.16-0.42,0.56,0.56,0,0,1,.8,0,0.61,0.61,0,0,1,.16.43v0.14a0.59,0.59,0,0,1-.16.42,0.52,0.52,0,0,1-.4.17,0.54,0.54,0,0,1-.4-0.16,0.59,0.59,0,0,1-.16-0.43v-0.14Zm0.19,0.15a0.44,0.44,0,0,0,.1.3,0.34,0.34,0,0,0,.27.12,0.33,0.33,0,0,0,.26-0.12,0.46,0.46,0,0,0,.1-0.31v-0.14a0.45,0.45,0,0,0-.1-0.3,0.36,0.36,0,0,0-.53,0,0.46,0.46,0,0,0-.1.31v0.14Zm0.45,1.91-0.15-.09,1.39-2.22,0.15,0.09Zm0.8-.46a0.59,0.59,0,0,1,.16-0.42,0.52,0.52,0,0,1,.4-0.17,0.53,0.53,0,0,1,.4.17,0.6,0.6,0,0,1,.16.43v0.14a0.59,0.59,0,0,1-.16.42,0.52,0.52,0,0,1-.4.17,0.53,0.53,0,0,1-.4-0.17,0.59,0.59,0,0,1-.16-0.43V130Zm0.19,0.15a0.45,0.45,0,0,0,.1.3,0.34,0.34,0,0,0,.27.12,0.33,0.33,0,0,0,.27-0.12,0.47,0.47,0,0,0,.1-0.31V130a0.45,0.45,0,0,0-.1-0.3,0.37,0.37,0,0,0-.53,0,0.45,0.45,0,0,0-.1.31v0.14Z" transform="translate(-852.92 -117.05)"/><path class="cls-5" d="M1004.42,138.15a1.65,1.65,0,0,1-.14.69,1,1,0,0,1-.39.46,1.06,1.06,0,0,1-.58.16,1,1,0,0,1-.8-0.36,1.42,1.42,0,0,1-.31-1v-0.29a1.63,1.63,0,0,1,.14-0.69,1,1,0,0,1,1-.62,1.06,1.06,0,0,1,.58.16,1,1,0,0,1,.39.45,1.62,1.62,0,0,1,.14.67v0.34Zm-0.24-.31a1.26,1.26,0,0,0-.23-0.8,0.84,0.84,0,0,0-1.27,0,1.26,1.26,0,0,0-.24.82v0.3a1.26,1.26,0,0,0,.23.8,0.84,0.84,0,0,0,1.27,0,1.29,1.29,0,0,0,.23-0.81v-0.3Z" transform="translate(-852.92 -117.05)"/><path class="cls-5" d="M1005.23,139.42H1005v-3h0.23v3Z" transform="translate(-852.92 -117.05)"/><path class="cls-5" d="M1005.85,136.7a0.16,0.16,0,0,1,0-.11,0.15,0.15,0,0,1,.12,0,0.16,0.16,0,0,1,.12,0,0.16,0.16,0,0,1,0,.11,0.15,0.15,0,0,1,0,.11,0.16,0.16,0,0,1-.12,0,0.15,0.15,0,0,1-.12,0A0.15,0.15,0,0,1,1005.85,136.7Zm0.28,2.72h-0.23v-2.11h0.23v2.11Z" transform="translate(-852.92 -117.05)"/><path class="cls-5" d="M1007.42,139.1l0.64-1.79h0.24l-0.79,2.11h-0.19l-0.79-2.11h0.24Z" transform="translate(-852.92 -117.05)"/><path class="cls-5" d="M1009.48,139.46a0.92,0.92,0,0,1-.49-0.13,0.9,0.9,0,0,1-.34-0.37,1.15,1.15,0,0,1-.12-0.53v-0.08a1.24,1.24,0,0,1,.12-0.55,0.94,0.94,0,0,1,.33-0.38,0.81,0.81,0,0,1,.46-0.14,0.76,0.76,0,0,1,.61.26,1.07,1.07,0,0,1,.23.72v0.13h-1.51v0a0.88,0.88,0,0,0,.21.6,0.65,0.65,0,0,0,.52.24,0.76,0.76,0,0,0,.33-0.07,0.73,0.73,0,0,0,.26-0.22l0.15,0.11A0.85,0.85,0,0,1,1009.48,139.46Zm0-2a0.58,0.58,0,0,0-.44.19,0.89,0.89,0,0,0-.22.52H1010v0a0.78,0.78,0,0,0-.17-0.5A0.54,0.54,0,0,0,1009.44,137.47Z" transform="translate(-852.92 -117.05)"/><path class="cls-5" d="M1011.57,138.33a1.24,1.24,0,0,1,.12-0.55,0.89,0.89,0,0,1,.82-0.52,0.87,0.87,0,0,1,.68.3,1.14,1.14,0,0,1,.26.78v0a1.26,1.26,0,0,1-.12.55,0.89,0.89,0,0,1-.33.38,0.92,0.92,0,0,1-.49.13,0.87,0.87,0,0,1-.68-0.3,1.13,1.13,0,0,1-.26-0.78v0Zm0.23,0.06a1,1,0,0,0,.2.62,0.66,0.66,0,0,0,1,0,1,1,0,0,0,.2-0.64v0a1.08,1.08,0,0,0-.09-0.44,0.73,0.73,0,0,0-.25-0.31,0.64,0.64,0,0,0-.37-0.11,0.62,0.62,0,0,0-.51.25,1,1,0,0,0-.2.64v0Z" transform="translate(-852.92 -117.05)"/><path class="cls-5" d="M1013.93,136.7a0.16,0.16,0,0,1,0-.11,0.15,0.15,0,0,1,.12,0,0.16,0.16,0,0,1,.12,0,0.16,0.16,0,0,1,0,.11,0.15,0.15,0,0,1,0,.11,0.16,0.16,0,0,1-.12,0,0.15,0.15,0,0,1-.12,0A0.15,0.15,0,0,1,1013.93,136.7Zm0.28,2.72H1014v-2.11h0.23v2.11Z" transform="translate(-852.92 -117.05)"/><path class="cls-5" d="M1015.1,139.42h-0.23v-3h0.23v3Z" transform="translate(-852.92 -117.05)"/><path class="cls-5" d="M1003.93,143.52a0.46,0.46,0,0,0-.17-0.37,1.76,1.76,0,0,0-.61-0.26,2.11,2.11,0,0,1-.64-0.27,0.66,0.66,0,0,1,0-1.07,1.1,1.1,0,0,1,.69-0.2,1.14,1.14,0,0,1,.51.11,0.83,0.83,0,0,1,.35.3,0.8,0.8,0,0,1,.12.44h-0.24a0.6,0.6,0,0,0-.2-0.47,0.78,0.78,0,0,0-.54-0.18,0.85,0.85,0,0,0-.52.15,0.46,0.46,0,0,0-.19.38,0.43,0.43,0,0,0,.17.35,1.6,1.6,0,0,0,.56.24,2.64,2.64,0,0,1,.58.22,0.83,0.83,0,0,1,.3.27,0.67,0.67,0,0,1,.1.37,0.64,0.64,0,0,1-.27.54,1.15,1.15,0,0,1-.71.2,1.38,1.38,0,0,1-.55-0.11,0.84,0.84,0,0,1-.38-0.3,0.77,0.77,0,0,1-.13-0.44h0.24a0.57,0.57,0,0,0,.22.47,1,1,0,0,0,.6.17,0.89,0.89,0,0,0,.53-0.15A0.46,0.46,0,0,0,1003.93,143.52Z" transform="translate(-852.92 -117.05)"/><path class="cls-5" d="M1006.33,143.19a1.27,1.27,0,0,1-.22.78,0.7,0.7,0,0,1-.59.29,0.78,0.78,0,0,1-.66-0.3V145h-0.23v-2.93h0.22v0.3a0.75,0.75,0,0,1,.66-0.34,0.7,0.7,0,0,1,.59.29,1.3,1.3,0,0,1,.22.8v0Zm-0.23,0a1.09,1.09,0,0,0-.17-0.64,0.54,0.54,0,0,0-.46-0.23,0.62,0.62,0,0,0-.61.4v1a0.62,0.62,0,0,0,.24.28,0.69,0.69,0,0,0,.37.1,0.53,0.53,0,0,0,.46-0.24A1.19,1.19,0,0,0,1006.1,143.15Z" transform="translate(-852.92 -117.05)"/><path class="cls-5" d="M1008.18,144.22a1.08,1.08,0,0,1,0-.29,0.82,0.82,0,0,1-.31.25,1,1,0,0,1-.4.09,0.71,0.71,0,0,1-.49-0.17,0.55,0.55,0,0,1-.19-0.43,0.56,0.56,0,0,1,.26-0.49,1.23,1.23,0,0,1,.72-0.18h0.42v-0.24a0.46,0.46,0,0,0-.14-0.36,0.58,0.58,0,0,0-.41-0.13,0.64,0.64,0,0,0-.4.13,0.37,0.37,0,0,0-.16.3h-0.23a0.54,0.54,0,0,1,.23-0.44,0.9,0.9,0,0,1,.58-0.18,0.83,0.83,0,0,1,.56.18,0.64,0.64,0,0,1,.21.49v1a1.24,1.24,0,0,0,.06.46v0h-0.25Zm-0.73-.17a0.78,0.78,0,0,0,.42-0.11,0.67,0.67,0,0,0,.27-0.3v-0.46h-0.42a1,1,0,0,0-.55.13,0.38,0.38,0,0,0-.2.34,0.38,0.38,0,0,0,.13.29A0.5,0.5,0,0,0,1007.45,144.05Z" transform="translate(-852.92 -117.05)"/><path class="cls-5" d="M1009,141.5a0.16,0.16,0,0,1,0-.11,0.15,0.15,0,0,1,.12,0,0.16,0.16,0,0,1,.12,0,0.16,0.16,0,0,1,0,.11,0.15,0.15,0,0,1,0,.11,0.16,0.16,0,0,1-.12,0,0.15,0.15,0,0,1-.12,0A0.15,0.15,0,0,1,1009,141.5Zm0.28,2.72H1009v-2.11h0.23v2.11Z" transform="translate(-852.92 -117.05)"/><path class="cls-5" d="M1010.11,142.11v0.36a0.83,0.83,0,0,1,.3-0.3,0.77,0.77,0,0,1,.39-0.1,0.64,0.64,0,0,1,.51.19,0.87,0.87,0,0,1,.17.57v1.39h-0.23v-1.39a0.65,0.65,0,0,0-.12-0.42,0.47,0.47,0,0,0-.38-0.14,0.59,0.59,0,0,0-.38.14,0.79,0.79,0,0,0-.25.37v1.45h-0.23v-2.11h0.22Z" transform="translate(-852.92 -117.05)"/><path class="cls-5" d="M1003.66,148.11h0.44v0.2h-0.44V149h-0.23V148.3h-1.34v-0.13l1.32-2h0.26v1.93Zm-1.29,0h1.05v-1.62l-0.1.18Z" transform="translate(-852.92 -117.05)"/><path class="cls-5" d="M1004.39,146.73a0.59,0.59,0,0,1,.16-0.42,0.56,0.56,0,0,1,.8,0,0.61,0.61,0,0,1,.16.43v0.14a0.59,0.59,0,0,1-.16.42,0.52,0.52,0,0,1-.4.17,0.54,0.54,0,0,1-.4-0.16,0.59,0.59,0,0,1-.16-0.43v-0.14Zm0.19,0.15a0.44,0.44,0,0,0,.1.3,0.34,0.34,0,0,0,.27.12,0.33,0.33,0,0,0,.26-0.12,0.47,0.47,0,0,0,.1-0.31v-0.14a0.45,0.45,0,0,0-.1-0.3,0.36,0.36,0,0,0-.53,0,0.46,0.46,0,0,0-.1.31v0.14Zm0.45,1.91-0.15-.09,1.39-2.22,0.15,0.09Zm0.8-.46a0.58,0.58,0,0,1,.16-0.42,0.52,0.52,0,0,1,.4-0.17,0.53,0.53,0,0,1,.4.17,0.6,0.6,0,0,1,.16.43v0.14a0.59,0.59,0,0,1-.16.42,0.52,0.52,0,0,1-.4.17,0.53,0.53,0,0,1-.4-0.17,0.59,0.59,0,0,1-.16-0.43v-0.14Zm0.19,0.15a0.45,0.45,0,0,0,.1.3,0.34,0.34,0,0,0,.27.12,0.33,0.33,0,0,0,.27-0.12,0.47,0.47,0,0,0,.1-0.31v-0.14a0.45,0.45,0,0,0-.1-0.3,0.34,0.34,0,0,0-.27-0.11,0.34,0.34,0,0,0-.27.12,0.45,0.45,0,0,0-.1.31v0.14Z" transform="translate(-852.92 -117.05)"/><path class="cls-6" d="M933.36,176.53v-22H893.8v22h7.68v35.71c-0.25,10.69-3.07,19.37-10.44,20.28v-6L887,232.14l-4.08,5.65,4.08,5.65,4.08,5.65V244c12-.91,18.32-14.35,18.82-31.05V313.86c0,6.28-3.56,11.36-8.27,11.36H886.22V323l-1.76,1.93-1.76,1.93,1.76,1.93,1.76,1.93v-2.52h15.37c5,0,9.26-4.61,10.47-10.85v32.28l0.14,20c-0.39,11.23-7.17,21.19-15.51,21.19H887V388l-2.17,2.18-2.17,2.18,2.17,2.18,2.17,2.18v-2.82h9.71c9.76,0,17.83-9.89,19.1-22.71V848h10V538.55h-0.08v-362h7.68Z" transform="translate(-852.92 -117.05)"/><circle class="cls-3" cx="128.62" cy="355.63"/><polygon class="cls-7" points="219.48 97.59 218.58 98.38 217.67 99.16 217.67 97.59 217.67 96.01 218.58 96.8 219.48 97.59"/><path class="cls-4" d="M860.59,247.49" transform="translate(-852.92 -117.05)"/><line class="cls-4" x1="219.08" y1="70.44" x2="11.07" y2="70.44"/><line class="cls-4" x1="219.49" y1="159.44" x2="11.07" y2="159.44"/><line class="cls-4" x1="219.49" y1="240.44" x2="10.34" y2="240.44"/><line class="cls-4" x1="219.49" y1="322.44" x2="12.34" y2="322.44"/><path class="cls-5" d="M867.57,182.67h-2.26l-0.51,1.4h-0.44l1.88-5h0.4l1.88,5h-0.44Zm-2.13-.36h2l-1-2.71Z" transform="translate(-852.92 -117.05)"/><path class="cls-5" d="M869,182.18a2.22,2.22,0,0,1,.38-1.38,1.24,1.24,0,0,1,1-.51,1.29,1.29,0,0,1,1.15.6l0-.53H872V184a1.56,1.56,0,0,1-.4,1.13,1.43,1.43,0,0,1-1.08.42,1.65,1.65,0,0,1-.74-0.17,1.43,1.43,0,0,1-.55-0.46l0.23-.25a1.3,1.3,0,0,0,1,.53,1,1,0,0,0,.8-0.3,1.2,1.2,0,0,0,.3-0.84v-0.46a1.32,1.32,0,0,1-1.14.55,1.23,1.23,0,0,1-1-.51,2.23,2.23,0,0,1-.39-1.38v-0.05Zm0.41,0.07a1.93,1.93,0,0,0,.28,1.12,0.92,0.92,0,0,0,.8.41,1.09,1.09,0,0,0,1.07-.68v-1.72a1.17,1.17,0,0,0-.41-0.54,1.11,1.11,0,0,0-.65-0.19,0.93,0.93,0,0,0-.8.41A2.06,2.06,0,0,0,869.41,182.26Z" transform="translate(-852.92 -117.05)"/><path class="cls-5" d="M874.75,180.72l-0.28,0a1,1,0,0,0-.65.21,1.18,1.18,0,0,0-.38.62v2.54H873v-3.7h0.4V181a1.09,1.09,0,0,1,1-.66,0.66,0.66,0,0,1,.27,0v0.37Z" transform="translate(-852.92 -117.05)"/><path class="cls-5" d="M875.38,179.3a0.27,0.27,0,0,1,.07-0.19,0.27,0.27,0,0,1,.21-0.08,0.27,0.27,0,0,1,.21.08,0.27,0.27,0,0,1,.08.19,0.26,0.26,0,0,1-.08.19,0.28,0.28,0,0,1-.21.08,0.27,0.27,0,0,1-.21-0.08A0.27,0.27,0,0,1,875.38,179.3Zm0.48,4.77h-0.41v-3.7h0.41v3.7Z" transform="translate(-852.92 -117.05)"/><path class="cls-5" d="M878.33,183.79a1.08,1.08,0,0,0,.72-0.24,0.85,0.85,0,0,0,.31-0.62h0.39a1.16,1.16,0,0,1-.21.62,1.33,1.33,0,0,1-.52.44,1.56,1.56,0,0,1-.69.16,1.43,1.43,0,0,1-1.15-.51,2,2,0,0,1-.43-1.36v-0.12a2.31,2.31,0,0,1,.19-1,1.48,1.48,0,0,1,.55-0.65,1.51,1.51,0,0,1,.83-0.23,1.43,1.43,0,0,1,1,.36,1.32,1.32,0,0,1,.42,1h-0.39a1,1,0,0,0-1-1,1,1,0,0,0-.86.4,1.81,1.81,0,0,0-.31,1.12v0.12a1.77,1.77,0,0,0,.31,1.1A1,1,0,0,0,878.33,183.79Z" transform="translate(-852.92 -117.05)"/><path class="cls-5" d="M883,183.6a1.33,1.33,0,0,1-1.18.54,1.14,1.14,0,0,1-.9-0.34,1.5,1.5,0,0,1-.31-1v-2.41H881v2.35a0.86,0.86,0,0,0,.86,1.06,1,1,0,0,0,1.12-.73v-2.68h0.41v3.7H883V183.6Z" transform="translate(-852.92 -117.05)"/><path class="cls-5" d="M884.88,184.07h-0.41v-5.25h0.41v5.25Z" transform="translate(-852.92 -117.05)"/><path class="cls-5" d="M886.62,179.42v0.95h0.77v0.33h-0.77v2.47a0.77,0.77,0,0,0,.11.46,0.43,0.43,0,0,0,.37.15l0.33,0,0,0.33a1.34,1.34,0,0,1-.44.06,0.73,0.73,0,0,1-.61-0.24,1.15,1.15,0,0,1-.19-0.72V180.7h-0.68v-0.33h0.68v-0.95h0.41Z" transform="translate(-852.92 -117.05)"/><path class="cls-5" d="M890.62,183.6a1.33,1.33,0,0,1-1.18.54,1.14,1.14,0,0,1-.9-0.34,1.5,1.5,0,0,1-.31-1v-2.41h0.41v2.35a0.86,0.86,0,0,0,.86,1.06,1,1,0,0,0,1.12-.73v-2.68H891v3.7h-0.4V183.6Z" transform="translate(-852.92 -117.05)"/><path class="cls-5" d="M893.79,180.72l-0.28,0a1,1,0,0,0-.65.21,1.18,1.18,0,0,0-.38.62v2.54h-0.41v-3.7h0.4V181a1.09,1.09,0,0,1,1-.66,0.66,0.66,0,0,1,.27,0v0.37Z" transform="translate(-852.92 -117.05)"/><path class="cls-5" d="M895.8,184.14a1.61,1.61,0,0,1-.85-0.23,1.59,1.59,0,0,1-.59-0.65,2,2,0,0,1-.21-0.93v-0.15a2.18,2.18,0,0,1,.21-1,1.65,1.65,0,0,1,.58-0.67,1.43,1.43,0,0,1,.8-0.24,1.33,1.33,0,0,1,1.07.46,1.86,1.86,0,0,1,.4,1.26v0.23h-2.64v0.08a1.55,1.55,0,0,0,.36,1,1.15,1.15,0,0,0,.91.42,1.33,1.33,0,0,0,.58-0.12,1.28,1.28,0,0,0,.46-0.38l0.26,0.19A1.49,1.49,0,0,1,895.8,184.14Zm-0.07-3.49a1,1,0,0,0-.78.34,1.56,1.56,0,0,0-.38.91h2.22v0a1.36,1.36,0,0,0-.3-0.87A0.94,0.94,0,0,0,895.73,180.65Z" transform="translate(-852.92 -117.05)"/><path class="cls-5" d="M867.28,271v2h-0.42v-5h1.7a1.79,1.79,0,0,1,1.23.4,1.56,1.56,0,0,1,0,2.17,1.83,1.83,0,0,1-1.25.38h-1.27Zm0-.36h1.28a1.35,1.35,0,0,0,.93-0.29,1,1,0,0,0,.32-0.81,1.09,1.09,0,0,0-.32-0.82,1.28,1.28,0,0,0-.91-0.31h-1.3v2.24Z" transform="translate(-852.92 -117.05)"/><path class="cls-5" d="M870.8,271.16a2.18,2.18,0,0,1,.21-1,1.55,1.55,0,0,1,1.44-.9,1.52,1.52,0,0,1,1.2.52,2,2,0,0,1,.46,1.37v0.09a2.2,2.2,0,0,1-.21,1,1.55,1.55,0,0,1-.58.66,1.6,1.6,0,0,1-.86.23,1.52,1.52,0,0,1-1.19-.52,2,2,0,0,1-.46-1.37v-0.08Zm0.41,0.11a1.68,1.68,0,0,0,.34,1.09,1.16,1.16,0,0,0,1.8,0,1.74,1.74,0,0,0,.34-1.12v-0.08a1.87,1.87,0,0,0-.16-0.78,1.25,1.25,0,0,0-.44-0.54,1.13,1.13,0,0,0-.65-0.19,1.1,1.1,0,0,0-.89.43,1.74,1.74,0,0,0-.34,1.12v0.08Z" transform="translate(-852.92 -117.05)"/><path class="cls-5" d="M877.16,272.13a0.58,0.58,0,0,0-.24-0.49,1.89,1.89,0,0,0-.74-0.29,3.31,3.31,0,0,1-.76-0.24,1,1,0,0,1-.4-0.33,0.82,0.82,0,0,1-.13-0.47,0.88,0.88,0,0,1,.37-0.72,1.48,1.48,0,0,1,.94-0.29,1.52,1.52,0,0,1,1,.31,1,1,0,0,1,.37.8h-0.41a0.66,0.66,0,0,0-.27-0.54,1.23,1.23,0,0,0-1.33,0,0.55,0.55,0,0,0-.24.47,0.5,0.5,0,0,0,.2.43,2.16,2.16,0,0,0,.74.28,3.48,3.48,0,0,1,.81.27,1.05,1.05,0,0,1,.4.35,0.95,0.95,0,0,1-.25,1.24,1.61,1.61,0,0,1-1,.28,1.66,1.66,0,0,1-1-.31,1,1,0,0,1-.4-0.79h0.41a0.71,0.71,0,0,0,.3.56,1.24,1.24,0,0,0,.74.2,1.16,1.16,0,0,0,.69-0.19A0.56,0.56,0,0,0,877.16,272.13Z" transform="translate(-852.92 -117.05)"/><path class="cls-5" d="M879.13,268.42v0.95h0.77v0.33h-0.77v2.47a0.77,0.77,0,0,0,.11.46,0.43,0.43,0,0,0,.37.15l0.33,0,0,0.33a1.34,1.34,0,0,1-.44.06,0.73,0.73,0,0,1-.61-0.24,1.15,1.15,0,0,1-.19-0.72V269.7H878v-0.33h0.68v-0.95h0.41Z" transform="translate(-852.92 -117.05)"/><path class="cls-5" d="M886.22,273.07H885.8v-2.39H883v2.39h-0.42v-5H883v2.24h2.84v-2.24h0.42v5Z" transform="translate(-852.92 -117.05)"/><path class="cls-5" d="M889.73,273.07a2,2,0,0,1-.08-0.52,1.42,1.42,0,0,1-.55.43,1.67,1.67,0,0,1-.71.15,1.24,1.24,0,0,1-.86-0.3,1,1,0,0,1-.33-0.75,1,1,0,0,1,.45-0.85,2.16,2.16,0,0,1,1.25-.31h0.74V270.5a0.81,0.81,0,0,0-.24-0.62,1,1,0,0,0-.71-0.23,1.11,1.11,0,0,0-.71.22,0.65,0.65,0,0,0-.28.53h-0.41a1,1,0,0,1,.41-0.76,1.58,1.58,0,0,1,1-.32,1.44,1.44,0,0,1,1,.31,1.11,1.11,0,0,1,.37.86v1.75a2.19,2.19,0,0,0,.11.8v0h-0.44Zm-1.29-.29a1.37,1.37,0,0,0,.73-0.2,1.16,1.16,0,0,0,.47-0.53v-0.81h-0.73a1.83,1.83,0,0,0-1,.22,0.67,0.67,0,0,0-.35.6,0.66,0.66,0,0,0,.23.52A0.87,0.87,0,0,0,888.44,272.77Z" transform="translate(-852.92 -117.05)"/><path class="cls-5" d="M892.85,269.72l-0.28,0a1,1,0,0,0-.65.21,1.18,1.18,0,0,0-.38.62v2.54h-0.41v-3.7h0.4V270a1.09,1.09,0,0,1,1-.66,0.66,0.66,0,0,1,.27,0v0.37Z" transform="translate(-852.92 -117.05)"/><path class="cls-5" d="M894.71,272.5l1.12-3.13h0.42l-1.38,3.7h-0.33l-1.39-3.7h0.42Z" transform="translate(-852.92 -117.05)"/><path class="cls-5" d="M898.32,273.14a1.61,1.61,0,0,1-.85-0.23,1.59,1.59,0,0,1-.59-0.65,2,2,0,0,1-.21-0.93v-0.15a2.18,2.18,0,0,1,.21-1,1.65,1.65,0,0,1,.58-0.67,1.43,1.43,0,0,1,.8-0.24,1.33,1.33,0,0,1,1.07.46,1.86,1.86,0,0,1,.4,1.26v0.23h-2.64v0.08a1.55,1.55,0,0,0,.36,1,1.15,1.15,0,0,0,.91.42,1.33,1.33,0,0,0,.58-0.12,1.28,1.28,0,0,0,.46-0.38l0.26,0.19A1.49,1.49,0,0,1,898.32,273.14Zm-0.07-3.49a1,1,0,0,0-.78.34,1.56,1.56,0,0,0-.38.91h2.22v0A1.36,1.36,0,0,0,899,270,0.94,0.94,0,0,0,898.24,269.65Z" transform="translate(-852.92 -117.05)"/><path class="cls-5" d="M902.71,272.13a0.58,0.58,0,0,0-.24-0.49,1.89,1.89,0,0,0-.74-0.29,3.31,3.31,0,0,1-.76-0.24,1,1,0,0,1-.4-0.33,0.82,0.82,0,0,1-.13-0.47,0.88,0.88,0,0,1,.37-0.72,1.48,1.48,0,0,1,.94-0.29,1.52,1.52,0,0,1,1,.31,1,1,0,0,1,.37.8h-0.41a0.66,0.66,0,0,0-.27-0.54,1.23,1.23,0,0,0-1.33,0,0.55,0.55,0,0,0-.24.47,0.5,0.5,0,0,0,.2.43,2.16,2.16,0,0,0,.74.28,3.48,3.48,0,0,1,.81.27,1.05,1.05,0,0,1,.4.35,0.95,0.95,0,0,1-.25,1.24,1.61,1.61,0,0,1-1,.28,1.66,1.66,0,0,1-1-.31,1,1,0,0,1-.4-0.79h0.41a0.71,0.71,0,0,0,.3.56,1.24,1.24,0,0,0,.74.2,1.16,1.16,0,0,0,.69-0.19A0.56,0.56,0,0,0,902.71,272.13Z" transform="translate(-852.92 -117.05)"/><path class="cls-5" d="M904.68,268.42v0.95h0.77v0.33h-0.77v2.47a0.77,0.77,0,0,0,.11.46,0.43,0.43,0,0,0,.37.15l0.33,0,0,0.33a1.34,1.34,0,0,1-.44.06,0.73,0.73,0,0,1-.61-0.24,1.15,1.15,0,0,1-.19-0.72V269.7h-0.68v-0.33h0.68v-0.95h0.41Z" transform="translate(-852.92 -117.05)"/><path class="cls-5" d="M865.31,352v2h-0.42v-5h1.7a1.79,1.79,0,0,1,1.23.4,1.56,1.56,0,0,1,0,2.17,1.83,1.83,0,0,1-1.25.38h-1.27Zm0-.36h1.28a1.35,1.35,0,0,0,.93-0.29,1,1,0,0,0,.32-0.81,1.09,1.09,0,0,0-.32-0.82,1.28,1.28,0,0,0-.91-0.31h-1.3v2.24Z" transform="translate(-852.92 -117.05)"/><path class="cls-5" d="M870.81,350.72l-0.28,0a1,1,0,0,0-.65.21,1.18,1.18,0,0,0-.38.62v2.54H869.1v-3.7h0.4V351a1.09,1.09,0,0,1,1-.66,0.66,0.66,0,0,1,.27,0v0.37Z" transform="translate(-852.92 -117.05)"/><path class="cls-5" d="M871.16,352.16a2.18,2.18,0,0,1,.21-1,1.55,1.55,0,0,1,1.44-.9,1.52,1.52,0,0,1,1.2.52,2,2,0,0,1,.46,1.37v0.09a2.2,2.2,0,0,1-.21,1,1.55,1.55,0,0,1-.58.66,1.6,1.6,0,0,1-.86.23,1.52,1.52,0,0,1-1.19-.52,2,2,0,0,1-.46-1.37v-0.08Zm0.41,0.11a1.68,1.68,0,0,0,.34,1.09,1.16,1.16,0,0,0,1.8,0,1.74,1.74,0,0,0,.34-1.12v-0.08a1.87,1.87,0,0,0-.16-0.78,1.25,1.25,0,0,0-.44-0.54,1.13,1.13,0,0,0-.65-0.19,1.1,1.1,0,0,0-.89.43,1.74,1.74,0,0,0-.34,1.12v0.08Z" transform="translate(-852.92 -117.05)"/><path class="cls-5" d="M876.67,353.79a1.08,1.08,0,0,0,.72-0.24,0.85,0.85,0,0,0,.31-0.62h0.39a1.16,1.16,0,0,1-.21.62,1.33,1.33,0,0,1-.52.44,1.56,1.56,0,0,1-.69.16,1.43,1.43,0,0,1-1.15-.51,2,2,0,0,1-.43-1.36v-0.12a2.31,2.31,0,0,1,.19-1,1.48,1.48,0,0,1,.55-0.65,1.51,1.51,0,0,1,.83-0.23,1.43,1.43,0,0,1,1,.36,1.32,1.32,0,0,1,.42,1H877.7a1,1,0,0,0-1-1,1,1,0,0,0-.86.4,1.81,1.81,0,0,0-.31,1.12v0.12a1.77,1.77,0,0,0,.31,1.1A1,1,0,0,0,876.67,353.79Z" transform="translate(-852.92 -117.05)"/><path class="cls-5" d="M880.34,354.14a1.61,1.61,0,0,1-.85-0.23,1.59,1.59,0,0,1-.59-0.65,2,2,0,0,1-.21-0.93v-0.15a2.18,2.18,0,0,1,.21-1,1.65,1.65,0,0,1,.58-0.67,1.43,1.43,0,0,1,.8-0.24,1.33,1.33,0,0,1,1.07.46,1.86,1.86,0,0,1,.4,1.26v0.23h-2.64v0.08a1.55,1.55,0,0,0,.36,1,1.15,1.15,0,0,0,.91.42,1.33,1.33,0,0,0,.58-0.12,1.28,1.28,0,0,0,.46-0.38l0.26,0.19A1.49,1.49,0,0,1,880.34,354.14Zm-0.07-3.49a1,1,0,0,0-.78.34,1.56,1.56,0,0,0-.38.91h2.22v0A1.36,1.36,0,0,0,881,351,0.94,0.94,0,0,0,880.27,350.65Z" transform="translate(-852.92 -117.05)"/><path class="cls-5" d="M884.74,353.13a0.58,0.58,0,0,0-.24-0.49,1.89,1.89,0,0,0-.74-0.29,3.31,3.31,0,0,1-.76-0.24,1,1,0,0,1-.4-0.33,0.82,0.82,0,0,1-.13-0.47,0.88,0.88,0,0,1,.37-0.72,1.48,1.48,0,0,1,.94-0.29,1.52,1.52,0,0,1,1,.31,1,1,0,0,1,.37.8h-0.41a0.66,0.66,0,0,0-.27-0.54,1.23,1.23,0,0,0-1.33,0,0.55,0.55,0,0,0-.24.47,0.5,0.5,0,0,0,.2.43,2.16,2.16,0,0,0,.74.28,3.48,3.48,0,0,1,.81.27,1.05,1.05,0,0,1,.4.35,0.95,0.95,0,0,1-.25,1.24,1.61,1.61,0,0,1-1,.28,1.66,1.66,0,0,1-1-.31,1,1,0,0,1-.4-0.79h0.41a0.71,0.71,0,0,0,.3.56,1.24,1.24,0,0,0,.74.2,1.16,1.16,0,0,0,.69-0.19A0.56,0.56,0,0,0,884.74,353.13Z" transform="translate(-852.92 -117.05)"/><path class="cls-5" d="M888.29,353.13a0.58,0.58,0,0,0-.24-0.49,1.89,1.89,0,0,0-.74-0.29,3.31,3.31,0,0,1-.76-0.24,1,1,0,0,1-.4-0.33,0.82,0.82,0,0,1-.13-0.47,0.88,0.88,0,0,1,.37-0.72,1.48,1.48,0,0,1,.94-0.29,1.52,1.52,0,0,1,1,.31,1,1,0,0,1,.37.8h-0.41a0.66,0.66,0,0,0-.27-0.54,1.23,1.23,0,0,0-1.33,0,0.55,0.55,0,0,0-.24.47,0.5,0.5,0,0,0,.2.43,2.16,2.16,0,0,0,.74.28,3.48,3.48,0,0,1,.81.27,1.05,1.05,0,0,1,.4.35,0.95,0.95,0,0,1-.25,1.24,1.61,1.61,0,0,1-1,.28,1.66,1.66,0,0,1-1-.31,1,1,0,0,1-.4-0.79h0.41a0.71,0.71,0,0,0,.3.56,1.24,1.24,0,0,0,.74.2,1.16,1.16,0,0,0,.69-0.19A0.56,0.56,0,0,0,888.29,353.13Z" transform="translate(-852.92 -117.05)"/><path class="cls-5" d="M889.59,349.3a0.27,0.27,0,0,1,.07-0.19,0.27,0.27,0,0,1,.21-0.08,0.27,0.27,0,0,1,.21.08,0.27,0.27,0,0,1,.08.19,0.26,0.26,0,0,1-.08.19,0.28,0.28,0,0,1-.21.08,0.27,0.27,0,0,1-.21-0.08A0.27,0.27,0,0,1,889.59,349.3Zm0.48,4.77h-0.41v-3.7h0.41v3.7Z" transform="translate(-852.92 -117.05)"/><path class="cls-5" d="M891.58,350.37V351a1.46,1.46,0,0,1,.52-0.52,1.34,1.34,0,0,1,.69-0.18,1.11,1.11,0,0,1,.89.33,1.51,1.51,0,0,1,.29,1v2.43h-0.41v-2.43a1.13,1.13,0,0,0-.21-0.74,0.82,0.82,0,0,0-.66-0.24,1,1,0,0,0-.67.24,1.4,1.4,0,0,0-.43.64v2.53h-0.41v-3.7h0.39Z" transform="translate(-852.92 -117.05)"/><path class="cls-5" d="M894.87,352.18a2.22,2.22,0,0,1,.38-1.38,1.24,1.24,0,0,1,1-.51,1.29,1.29,0,0,1,1.15.6l0-.53h0.38V354a1.56,1.56,0,0,1-.4,1.13,1.43,1.43,0,0,1-1.08.42,1.65,1.65,0,0,1-.74-0.17,1.43,1.43,0,0,1-.55-0.46l0.23-.25a1.3,1.3,0,0,0,1,.53,1,1,0,0,0,.8-0.3,1.2,1.2,0,0,0,.3-0.84v-0.46a1.32,1.32,0,0,1-1.14.55,1.23,1.23,0,0,1-1-.51,2.23,2.23,0,0,1-.39-1.38v-0.05Zm0.41,0.07a1.93,1.93,0,0,0,.28,1.12,0.92,0.92,0,0,0,.8.41,1.09,1.09,0,0,0,1.07-.68v-1.72a1.17,1.17,0,0,0-.41-0.54,1.11,1.11,0,0,0-.65-0.19,0.93,0.93,0,0,0-.8.41A2.06,2.06,0,0,0,895.28,352.26Z" transform="translate(-852.92 -117.05)"/><path class="cls-5" d="M865.86,436.07v-5h1.39a2.17,2.17,0,0,1,1.1.28,1.93,1.93,0,0,1,.76.8,2.51,2.51,0,0,1,.27,1.18v0.46a2.52,2.52,0,0,1-.27,1.18,1.92,1.92,0,0,1-.76.8,2.23,2.23,0,0,1-1.13.28h-1.36Zm0.42-4.62v4.27h0.94a1.62,1.62,0,0,0,1.26-.52,2,2,0,0,0,.47-1.41v-0.44a2,2,0,0,0-.47-1.37,1.6,1.6,0,0,0-1.23-.52h-1Z" transform="translate(-852.92 -117.05)"/><path class="cls-5" d="M870.32,431.3a0.27,0.27,0,0,1,.07-0.19,0.27,0.27,0,0,1,.21-0.08,0.27,0.27,0,0,1,.21.08,0.27,0.27,0,0,1,.08.19,0.26,0.26,0,0,1-.08.19,0.28,0.28,0,0,1-.21.08,0.27,0.27,0,0,1-.21-0.08A0.27,0.27,0,0,1,870.32,431.3Zm0.48,4.77h-0.41v-3.7h0.41v3.7Z" transform="translate(-852.92 -117.05)"/><path class="cls-5" d="M874.13,435.13a0.58,0.58,0,0,0-.24-0.49,1.89,1.89,0,0,0-.74-0.29,3.31,3.31,0,0,1-.76-0.24,1,1,0,0,1-.4-0.33,0.82,0.82,0,0,1-.13-0.47,0.88,0.88,0,0,1,.37-0.72,1.48,1.48,0,0,1,.94-0.29,1.52,1.52,0,0,1,1,.31,1,1,0,0,1,.37.8h-0.41a0.66,0.66,0,0,0-.27-0.54,1.23,1.23,0,0,0-1.33,0,0.55,0.55,0,0,0-.24.47,0.5,0.5,0,0,0,.2.43,2.16,2.16,0,0,0,.74.28,3.48,3.48,0,0,1,.81.27,1.05,1.05,0,0,1,.4.35,0.95,0.95,0,0,1-.25,1.24,1.61,1.61,0,0,1-1,.28,1.66,1.66,0,0,1-1-.31,1,1,0,0,1-.4-0.79h0.41a0.71,0.71,0,0,0,.3.56,1.24,1.24,0,0,0,.74.2,1.16,1.16,0,0,0,.69-0.19A0.56,0.56,0,0,0,874.13,435.13Z" transform="translate(-852.92 -117.05)"/><path class="cls-5" d="M876.09,431.42v0.95h0.77v0.33h-0.77v2.47a0.77,0.77,0,0,0,.11.46,0.43,0.43,0,0,0,.37.15l0.33,0,0,0.33a1.34,1.34,0,0,1-.44.06,0.73,0.73,0,0,1-.61-0.24,1.15,1.15,0,0,1-.19-0.72V432.7H875v-0.33h0.68v-0.95h0.41Z" transform="translate(-852.92 -117.05)"/><path class="cls-5" d="M879.41,432.72l-0.28,0a1,1,0,0,0-.65.21,1.18,1.18,0,0,0-.38.62v2.54h-0.41v-3.7h0.4V433a1.09,1.09,0,0,1,1-.66,0.66,0.66,0,0,1,.27,0v0.37Z" transform="translate(-852.92 -117.05)"/><path class="cls-5" d="M880,431.3a0.27,0.27,0,0,1,.07-0.19,0.27,0.27,0,0,1,.21-0.08,0.27,0.27,0,0,1,.21.08,0.27,0.27,0,0,1,.08.19,0.26,0.26,0,0,1-.08.19,0.28,0.28,0,0,1-.21.08,0.27,0.27,0,0,1-.21-0.08A0.27,0.27,0,0,1,880,431.3Zm0.48,4.77h-0.41v-3.7h0.41v3.7Z" transform="translate(-852.92 -117.05)"/><path class="cls-5" d="M884.6,434.26a2.22,2.22,0,0,1-.38,1.37,1.22,1.22,0,0,1-1,.51,1.33,1.33,0,0,1-1.17-.57l0,0.51h-0.38v-5.25H882v2.09a1.29,1.29,0,0,1,1.16-.6,1.23,1.23,0,0,1,1,.5,2.25,2.25,0,0,1,.38,1.39v0.06Zm-0.41-.07a1.92,1.92,0,0,0-.28-1.13,0.93,0.93,0,0,0-.8-0.4,1.13,1.13,0,0,0-.67.19,1.18,1.18,0,0,0-.41.57v1.67a1.1,1.1,0,0,0,1.09.7,0.92,0.92,0,0,0,.79-0.4A2.06,2.06,0,0,0,884.19,434.18Z" transform="translate(-852.92 -117.05)"/><path class="cls-5" d="M887.89,435.6a1.33,1.33,0,0,1-1.18.54,1.14,1.14,0,0,1-.9-0.34,1.5,1.5,0,0,1-.31-1v-2.41h0.41v2.35a0.86,0.86,0,0,0,.86,1.06,1,1,0,0,0,1.12-.73v-2.68h0.41v3.7h-0.4V435.6Z" transform="translate(-852.92 -117.05)"/><path class="cls-5" d="M890,431.42v0.95h0.77v0.33H890v2.47a0.77,0.77,0,0,0,.11.46,0.43,0.43,0,0,0,.37.15l0.33,0,0,0.33a1.34,1.34,0,0,1-.44.06,0.73,0.73,0,0,1-.61-0.24,1.15,1.15,0,0,1-.19-0.72V432.7H888.9v-0.33h0.68v-0.95H890Z" transform="translate(-852.92 -117.05)"/><path class="cls-5" d="M891.58,431.3a0.27,0.27,0,0,1,.07-0.19,0.27,0.27,0,0,1,.21-0.08,0.27,0.27,0,0,1,.21.08,0.27,0.27,0,0,1,.08.19,0.26,0.26,0,0,1-.08.19,0.28,0.28,0,0,1-.21.08,0.27,0.27,0,0,1-.21-0.08A0.27,0.27,0,0,1,891.58,431.3Zm0.48,4.77h-0.41v-3.7h0.41v3.7Z" transform="translate(-852.92 -117.05)"/><path class="cls-5" d="M892.95,434.16a2.18,2.18,0,0,1,.21-1,1.55,1.55,0,0,1,1.44-.9,1.52,1.52,0,0,1,1.2.52,2,2,0,0,1,.46,1.37v0.09a2.2,2.2,0,0,1-.21,1,1.55,1.55,0,0,1-.58.66,1.6,1.6,0,0,1-.86.23,1.52,1.52,0,0,1-1.19-.52,2,2,0,0,1-.46-1.37v-0.08Zm0.41,0.11a1.68,1.68,0,0,0,.34,1.09,1.16,1.16,0,0,0,1.8,0,1.74,1.74,0,0,0,.34-1.12v-0.08a1.87,1.87,0,0,0-.16-0.78,1.25,1.25,0,0,0-.44-0.54,1.13,1.13,0,0,0-.65-0.19,1.1,1.1,0,0,0-.89.43,1.74,1.74,0,0,0-.34,1.12v0.08Z" transform="translate(-852.92 -117.05)"/><path class="cls-5" d="M897.48,432.37V433a1.46,1.46,0,0,1,.52-0.52,1.34,1.34,0,0,1,.69-0.18,1.11,1.11,0,0,1,.89.33,1.51,1.51,0,0,1,.29,1v2.43h-0.41v-2.43a1.13,1.13,0,0,0-.21-0.74,0.82,0.82,0,0,0-.66-0.24,1,1,0,0,0-.67.24,1.4,1.4,0,0,0-.43.64v2.53h-0.41v-3.7h0.39Z" transform="translate(-852.92 -117.05)"/><path class="cls-4" d="M822,646.5" transform="translate(-852.92 -117.05)"/><path class="cls-8" d="M1071.4,317.61l-1-.75v1.09h-69.78a8.48,8.48,0,0,1-8.42-8.48h-0.05V209a7,7,0,0,0,7,6.19v0h71.81v-1.09H999.1a5.87,5.87,0,0,1-5.87-5.87h0V176.53h1.72v-22h-7.7v22h1.72V528.72l-50,66.23V847.5H941V595h0l50.25-66.23h0V309.55h0.06a9.33,9.33,0,0,0,9.33,9.26h69.71v1.08l1-.75,1-.75Z" transform="translate(-852.92 -117.05)"/><path class="cls-9" d="M1069.08,388.41v2H981.2c-4.5,0-8.24-5.06-8.24-11.24v-47c0.8,4.45,3.72,7.75,7.21,7.75h90.11v1.83l1.07-1.43,1.07-1.43-1.07-1.43-1.07-1.43v2H980.17c-3,0-5.54-3.08-6-7.09,0.05-.05.16-98.38,0.16-98.38,2.39,19.46,76.91,15.32,91.74,15.58v3.72l3-3.44,3-3.44-3-3.44-3-3.44v5.18c-14.18-.29-89.88,2.87-89.89-16.64-1.28,0-.57-50-1.85-50h4.28v0h4.77V154.53h-22v22.16h4.77V549.45l-34,45.51V847.5h3.67V595h0l34-45.51,0.17-85v-35.9h0l0-47.46a2.42,2.42,0,0,1,.13-1c0.34,7.92,5.12,14.21,11,14.21v0h87.81v1.76l1.67-1.91,1.67-1.91-1.67-1.91Zm-96-134.6H973C973,253.75,973,253.75,973.07,253.8Z" transform="translate(-852.92 -117.05)"/><path class="cls-5" d="M965.33,607.25v-5h1.47a1.91,1.91,0,0,1,1.21.33,1.17,1.17,0,0,1,.41,1,1.1,1.1,0,0,1-.21.67,1.14,1.14,0,0,1-.58.41,1.2,1.2,0,0,1,1,1.19,1.29,1.29,0,0,1-.43,1,1.74,1.74,0,0,1-1.18.37h-1.66Zm0.42-2.74h1.15a1.3,1.3,0,0,0,.82-0.25,0.85,0.85,0,0,0,.29-0.69,0.83,0.83,0,0,0-.3-0.71,1.49,1.49,0,0,0-.9-0.23h-1v1.88Zm0,0.36v2H967a1.26,1.26,0,0,0,.86-0.28,1,1,0,0,0,.32-0.76,0.92,0.92,0,0,0-.3-0.73,1.22,1.22,0,0,0-.84-0.27h-1.3Z" transform="translate(-852.92 -117.05)"/><path class="cls-5" d="M971.24,603.9l-0.28,0a1,1,0,0,0-.65.21,1.18,1.18,0,0,0-.38.62v2.54h-0.41v-3.7h0.4v0.59a1.09,1.09,0,0,1,1-.66,0.67,0.67,0,0,1,.27,0v0.37Z" transform="translate(-852.92 -117.05)"/><path class="cls-5" d="M973.25,607.32a1.61,1.61,0,0,1-.85-0.23,1.59,1.59,0,0,1-.59-0.65,2,2,0,0,1-.21-0.93v-0.15a2.17,2.17,0,0,1,.21-1,1.65,1.65,0,0,1,.58-0.67,1.42,1.42,0,0,1,.8-0.24,1.33,1.33,0,0,1,1.07.46,1.86,1.86,0,0,1,.4,1.26v0.23H972v0.08a1.55,1.55,0,0,0,.36,1,1.15,1.15,0,0,0,.91.42,1.33,1.33,0,0,0,.58-0.12,1.28,1.28,0,0,0,.46-0.38l0.26,0.2A1.49,1.49,0,0,1,973.25,607.32Zm-0.07-3.49a1,1,0,0,0-.78.34,1.56,1.56,0,0,0-.38.91h2.22v0a1.36,1.36,0,0,0-.3-0.87A0.94,0.94,0,0,0,973.17,603.83Z" transform="translate(-852.92 -117.05)"/><path class="cls-5" d="M977.77,607.25a2,2,0,0,1-.08-0.52,1.43,1.43,0,0,1-.55.43,1.67,1.67,0,0,1-.71.15,1.24,1.24,0,0,1-.86-0.3,1,1,0,0,1-.33-0.75,1,1,0,0,1,.45-0.86,2.17,2.17,0,0,1,1.25-.31h0.74v-0.42a0.81,0.81,0,0,0-.24-0.62,1,1,0,0,0-.71-0.23,1.12,1.12,0,0,0-.71.22,0.65,0.65,0,0,0-.28.53h-0.41a1,1,0,0,1,.41-0.76,1.58,1.58,0,0,1,1-.32,1.44,1.44,0,0,1,1,.31,1.11,1.11,0,0,1,.37.86v1.75a2.19,2.19,0,0,0,.11.8v0h-0.44Zm-1.29-.29a1.37,1.37,0,0,0,.73-0.2,1.17,1.17,0,0,0,.47-0.53v-0.81H977a1.83,1.83,0,0,0-1,.22,0.67,0.67,0,0,0-.35.6,0.66,0.66,0,0,0,.23.52A0.87,0.87,0,0,0,976.48,607Z" transform="translate(-852.92 -117.05)"/><path class="cls-5" d="M979,605.37a2.23,2.23,0,0,1,.38-1.37,1.24,1.24,0,0,1,1-.51,1.29,1.29,0,0,1,1.14.59V602H982v5.25h-0.38l0-.49a1.32,1.32,0,0,1-1.16.56,1.23,1.23,0,0,1-1-.51,2.24,2.24,0,0,1-.39-1.39v0Zm0.41,0.07a1.93,1.93,0,0,0,.28,1.12,0.92,0.92,0,0,0,.8.41,1.1,1.1,0,0,0,1.07-.67v-1.74a1.09,1.09,0,0,0-1.07-.72,0.93,0.93,0,0,0-.8.41A2.06,2.06,0,0,0,979.43,605.44Z" transform="translate(-852.92 -117.05)"/><path class="cls-5" d="M968.15,614.43a0.8,0.8,0,0,0-.29-0.65,3.07,3.07,0,0,0-1.06-.46,3.73,3.73,0,0,1-1.13-.47,1.15,1.15,0,0,1,0-1.88,1.93,1.93,0,0,1,1.2-.36,2,2,0,0,1,.89.19,1.44,1.44,0,0,1,.61.53,1.4,1.4,0,0,1,.21.76h-0.42a1,1,0,0,0-.35-0.82,1.36,1.36,0,0,0-.94-0.31,1.47,1.47,0,0,0-.91.25,0.8,0.8,0,0,0-.34.67,0.75,0.75,0,0,0,.3.62,2.84,2.84,0,0,0,1,.42,4.61,4.61,0,0,1,1,.38,1.48,1.48,0,0,1,.52.47,1.18,1.18,0,0,1,.17.65,1.13,1.13,0,0,1-.47.94,2,2,0,0,1-1.24.36,2.42,2.42,0,0,1-1-.19,1.48,1.48,0,0,1-.67-0.53,1.36,1.36,0,0,1-.23-0.78h0.42a1,1,0,0,0,.39.83,1.66,1.66,0,0,0,1,.3,1.55,1.55,0,0,0,.93-0.26A0.8,0.8,0,0,0,968.15,614.43Z" transform="translate(-852.92 -117.05)"/><path class="cls-5" d="M970.27,614.8l0.06,0.32,0.08-.34L971.3,612h0.35l0.88,2.81,0.1,0.39,0.08-.36,0.76-2.84h0.42l-1.08,3.7h-0.35l-1-2.93,0-.2,0,0.21-0.93,2.93h-0.35l-1.07-3.7h0.42Z" transform="translate(-852.92 -117.05)"/><path class="cls-5" d="M976.09,615.72a1.61,1.61,0,0,1-.85-0.23,1.59,1.59,0,0,1-.59-0.65,2,2,0,0,1-.21-0.93v-0.15a2.18,2.18,0,0,1,.21-1,1.65,1.65,0,0,1,.58-0.67,1.43,1.43,0,0,1,.8-0.24,1.33,1.33,0,0,1,1.07.46,1.86,1.86,0,0,1,.4,1.26v0.23h-2.64v0.08a1.55,1.55,0,0,0,.36,1,1.15,1.15,0,0,0,.91.42,1.34,1.34,0,0,0,.58-0.12,1.29,1.29,0,0,0,.46-0.38l0.26,0.19A1.49,1.49,0,0,1,976.09,615.72ZM976,612.23a1,1,0,0,0-.78.34,1.56,1.56,0,0,0-.38.91h2.22v0a1.36,1.36,0,0,0-.3-0.87A0.94,0.94,0,0,0,976,612.23Z" transform="translate(-852.92 -117.05)"/><path class="cls-5" d="M978.11,613.77a2.22,2.22,0,0,1,.38-1.37,1.24,1.24,0,0,1,1-.51,1.29,1.29,0,0,1,1.14.59V610.4h0.41v5.25h-0.38l0-.49a1.32,1.32,0,0,1-1.16.56,1.23,1.23,0,0,1-1-.52,2.24,2.24,0,0,1-.39-1.39v0Zm0.41,0.07a1.93,1.93,0,0,0,.28,1.12,0.92,0.92,0,0,0,.8.41,1.1,1.1,0,0,0,1.07-.67V613a1.09,1.09,0,0,0-1.07-.72,0.93,0.93,0,0,0-.8.41A2.06,2.06,0,0,0,978.53,613.84Z" transform="translate(-852.92 -117.05)"/><path class="cls-5" d="M983.6,615.72a1.61,1.61,0,0,1-.85-0.23,1.59,1.59,0,0,1-.59-0.65,2,2,0,0,1-.21-0.93v-0.15a2.18,2.18,0,0,1,.21-1,1.65,1.65,0,0,1,.58-0.67,1.43,1.43,0,0,1,.8-0.24,1.33,1.33,0,0,1,1.07.46,1.86,1.86,0,0,1,.4,1.26v0.23h-2.64v0.08a1.55,1.55,0,0,0,.36,1,1.15,1.15,0,0,0,.91.42,1.34,1.34,0,0,0,.58-0.12,1.29,1.29,0,0,0,.46-0.38l0.26,0.19A1.49,1.49,0,0,1,983.6,615.72Zm-0.07-3.49a1,1,0,0,0-.78.34,1.56,1.56,0,0,0-.38.91h2.22v0a1.36,1.36,0,0,0-.3-0.87A0.94,0.94,0,0,0,983.52,612.23Z" transform="translate(-852.92 -117.05)"/><path class="cls-5" d="M986.17,612v0.63a1.46,1.46,0,0,1,.52-0.52,1.35,1.35,0,0,1,.69-0.18,1.11,1.11,0,0,1,.89.34,1.51,1.51,0,0,1,.29,1v2.43h-0.41v-2.43a1.13,1.13,0,0,0-.21-0.74,0.83,0.83,0,0,0-.66-0.24,1,1,0,0,0-.67.24,1.39,1.39,0,0,0-.43.64v2.53h-0.41V612h0.39Z" transform="translate(-852.92 -117.05)"/><path class="cls-5" d="M968.1,620.36a1.13,1.13,0,0,1-.22.69,1.31,1.31,0,0,1-.6.45,1.47,1.47,0,0,1,.69.48,1.19,1.19,0,0,1,.26.76,1.27,1.27,0,0,1-.43,1,2,2,0,0,1-2.3,0,1.27,1.27,0,0,1-.43-1,1.23,1.23,0,0,1,.25-0.76,1.4,1.4,0,0,1,.68-0.48,1.27,1.27,0,0,1-.59-0.45,1.16,1.16,0,0,1-.22-0.69,1.27,1.27,0,0,1,.4-1,1.7,1.7,0,0,1,2.11,0A1.27,1.27,0,0,1,968.1,620.36Zm-0.28,2.38a1,1,0,0,0-.33-0.76,1.35,1.35,0,0,0-1.69,0,1,1,0,0,0-.33.77,1,1,0,0,0,.32.76,1.44,1.44,0,0,0,1.71,0A1,1,0,0,0,967.83,622.73Zm-0.13-2.38a1,1,0,0,0-.29-0.71,1.15,1.15,0,0,0-1.51,0,1,1,0,0,0-.29.72,0.91,0.91,0,0,0,.29.7,1.2,1.2,0,0,0,1.51,0A0.91,0.91,0,0,0,967.69,620.35Z" transform="translate(-852.92 -117.05)"/><path class="cls-5" d="M969,620a1,1,0,0,1,.27-0.74,1,1,0,0,1,1.4,0,1.06,1.06,0,0,1,.27.76v0.24a1,1,0,0,1-.27.73,0.91,0.91,0,0,1-.7.29,0.94,0.94,0,0,1-.7-0.29,1,1,0,0,1-.28-0.76V620Zm0.33,0.26a0.78,0.78,0,0,0,.18.52,0.59,0.59,0,0,0,.47.21,0.57,0.57,0,0,0,.46-0.21,0.81,0.81,0,0,0,.17-0.54V620a0.78,0.78,0,0,0-.18-0.53,0.62,0.62,0,0,0-.93,0,0.8,0.8,0,0,0-.18.55v0.24Zm0.78,3.34-0.26-.16,2.43-3.89,0.26,0.16Zm1.39-.81a1,1,0,0,1,.28-0.74,0.91,0.91,0,0,1,.7-0.29,0.93,0.93,0,0,1,.7.29,1.05,1.05,0,0,1,.28.76v0.24a1,1,0,0,1-.28.74,0.91,0.91,0,0,1-.7.29,0.93,0.93,0,0,1-.7-0.29,1,1,0,0,1-.28-0.75v-0.25Zm0.33,0.26a0.78,0.78,0,0,0,.18.53,0.59,0.59,0,0,0,.47.21,0.58,0.58,0,0,0,.47-0.21,0.82,0.82,0,0,0,.17-0.54v-0.25a0.77,0.77,0,0,0-.18-0.53,0.64,0.64,0,0,0-.93,0,0.79,0.79,0,0,0-.18.54v0.25Z" transform="translate(-852.92 -117.05)"/><line class="cls-4" x1="108.92" y1="521.7" x2="108.92" y2="483.7"/><path class="cls-5" d="M965.33,607.25v-5h1.47a1.91,1.91,0,0,1,1.21.33,1.17,1.17,0,0,1,.41,1,1.1,1.1,0,0,1-.21.67,1.14,1.14,0,0,1-.58.41,1.2,1.2,0,0,1,1,1.19,1.29,1.29,0,0,1-.43,1,1.74,1.74,0,0,1-1.18.37h-1.66Zm0.42-2.74h1.15a1.3,1.3,0,0,0,.82-0.25,0.85,0.85,0,0,0,.29-0.69,0.83,0.83,0,0,0-.3-0.71,1.49,1.49,0,0,0-.9-0.23h-1v1.88Zm0,0.36v2H967a1.26,1.26,0,0,0,.86-0.28,1,1,0,0,0,.32-0.76,0.92,0.92,0,0,0-.3-0.73,1.22,1.22,0,0,0-.84-0.27h-1.3Z" transform="translate(-852.92 -117.05)"/><path class="cls-5" d="M971.24,603.9l-0.28,0a1,1,0,0,0-.65.21,1.18,1.18,0,0,0-.38.62v2.54h-0.41v-3.7h0.4v0.59a1.09,1.09,0,0,1,1-.66,0.67,0.67,0,0,1,.27,0v0.37Z" transform="translate(-852.92 -117.05)"/><path class="cls-5" d="M973.25,607.32a1.61,1.61,0,0,1-.85-0.23,1.59,1.59,0,0,1-.59-0.65,2,2,0,0,1-.21-0.93v-0.15a2.17,2.17,0,0,1,.21-1,1.65,1.65,0,0,1,.58-0.67,1.42,1.42,0,0,1,.8-0.24,1.33,1.33,0,0,1,1.07.46,1.86,1.86,0,0,1,.4,1.26v0.23H972v0.08a1.55,1.55,0,0,0,.36,1,1.15,1.15,0,0,0,.91.42,1.33,1.33,0,0,0,.58-0.12,1.28,1.28,0,0,0,.46-0.38l0.26,0.2A1.49,1.49,0,0,1,973.25,607.32Zm-0.07-3.49a1,1,0,0,0-.78.34,1.56,1.56,0,0,0-.38.91h2.22v0a1.36,1.36,0,0,0-.3-0.87A0.94,0.94,0,0,0,973.17,603.83Z" transform="translate(-852.92 -117.05)"/><path class="cls-5" d="M977.77,607.25a2,2,0,0,1-.08-0.52,1.43,1.43,0,0,1-.55.43,1.67,1.67,0,0,1-.71.15,1.24,1.24,0,0,1-.86-0.3,1,1,0,0,1-.33-0.75,1,1,0,0,1,.45-0.86,2.17,2.17,0,0,1,1.25-.31h0.74v-0.42a0.81,0.81,0,0,0-.24-0.62,1,1,0,0,0-.71-0.23,1.12,1.12,0,0,0-.71.22,0.65,0.65,0,0,0-.28.53h-0.41a1,1,0,0,1,.41-0.76,1.58,1.58,0,0,1,1-.32,1.44,1.44,0,0,1,1,.31,1.11,1.11,0,0,1,.37.86v1.75a2.19,2.19,0,0,0,.11.8v0h-0.44Zm-1.29-.29a1.37,1.37,0,0,0,.73-0.2,1.17,1.17,0,0,0,.47-0.53v-0.81H977a1.83,1.83,0,0,0-1,.22,0.67,0.67,0,0,0-.35.6,0.66,0.66,0,0,0,.23.52A0.87,0.87,0,0,0,976.48,607Z" transform="translate(-852.92 -117.05)"/><path class="cls-5" d="M979,605.37a2.23,2.23,0,0,1,.38-1.37,1.24,1.24,0,0,1,1-.51,1.29,1.29,0,0,1,1.14.59V602H982v5.25h-0.38l0-.49a1.32,1.32,0,0,1-1.16.56,1.23,1.23,0,0,1-1-.51,2.24,2.24,0,0,1-.39-1.39v0Zm0.41,0.07a1.93,1.93,0,0,0,.28,1.12,0.92,0.92,0,0,0,.8.41,1.1,1.1,0,0,0,1.07-.67v-1.74a1.09,1.09,0,0,0-1.07-.72,0.93,0.93,0,0,0-.8.41A2.06,2.06,0,0,0,979.43,605.44Z" transform="translate(-852.92 -117.05)"/><path class="cls-5" d="M968.15,614.43a0.8,0.8,0,0,0-.29-0.65,3.07,3.07,0,0,0-1.06-.46,3.73,3.73,0,0,1-1.13-.47,1.15,1.15,0,0,1,0-1.88,1.93,1.93,0,0,1,1.2-.36,2,2,0,0,1,.89.19,1.44,1.44,0,0,1,.61.53,1.4,1.4,0,0,1,.21.76h-0.42a1,1,0,0,0-.35-0.82,1.36,1.36,0,0,0-.94-0.31,1.47,1.47,0,0,0-.91.25,0.8,0.8,0,0,0-.34.67,0.75,0.75,0,0,0,.3.62,2.84,2.84,0,0,0,1,.42,4.61,4.61,0,0,1,1,.38,1.48,1.48,0,0,1,.52.47,1.18,1.18,0,0,1,.17.65,1.13,1.13,0,0,1-.47.94,2,2,0,0,1-1.24.36,2.42,2.42,0,0,1-1-.19,1.48,1.48,0,0,1-.67-0.53,1.36,1.36,0,0,1-.23-0.78h0.42a1,1,0,0,0,.39.83,1.66,1.66,0,0,0,1,.3,1.55,1.55,0,0,0,.93-0.26A0.8,0.8,0,0,0,968.15,614.43Z" transform="translate(-852.92 -117.05)"/><path class="cls-5" d="M970.27,614.8l0.06,0.32,0.08-.34L971.3,612h0.35l0.88,2.81,0.1,0.39,0.08-.36,0.76-2.84h0.42l-1.08,3.7h-0.35l-1-2.93,0-.2,0,0.21-0.93,2.93h-0.35l-1.07-3.7h0.42Z" transform="translate(-852.92 -117.05)"/><path class="cls-5" d="M976.09,615.72a1.61,1.61,0,0,1-.85-0.23,1.59,1.59,0,0,1-.59-0.65,2,2,0,0,1-.21-0.93v-0.15a2.18,2.18,0,0,1,.21-1,1.65,1.65,0,0,1,.58-0.67,1.43,1.43,0,0,1,.8-0.24,1.33,1.33,0,0,1,1.07.46,1.86,1.86,0,0,1,.4,1.26v0.23h-2.64v0.08a1.55,1.55,0,0,0,.36,1,1.15,1.15,0,0,0,.91.42,1.34,1.34,0,0,0,.58-0.12,1.29,1.29,0,0,0,.46-0.38l0.26,0.19A1.49,1.49,0,0,1,976.09,615.72ZM976,612.23a1,1,0,0,0-.78.34,1.56,1.56,0,0,0-.38.91h2.22v0a1.36,1.36,0,0,0-.3-0.87A0.94,0.94,0,0,0,976,612.23Z" transform="translate(-852.92 -117.05)"/><path class="cls-5" d="M978.11,613.77a2.22,2.22,0,0,1,.38-1.37,1.24,1.24,0,0,1,1-.51,1.29,1.29,0,0,1,1.14.59V610.4h0.41v5.25h-0.38l0-.49a1.32,1.32,0,0,1-1.16.56,1.23,1.23,0,0,1-1-.52,2.24,2.24,0,0,1-.39-1.39v0Zm0.41,0.07a1.93,1.93,0,0,0,.28,1.12,0.92,0.92,0,0,0,.8.41,1.1,1.1,0,0,0,1.07-.67V613a1.09,1.09,0,0,0-1.07-.72,0.93,0.93,0,0,0-.8.41A2.06,2.06,0,0,0,978.53,613.84Z" transform="translate(-852.92 -117.05)"/><path class="cls-5" d="M983.6,615.72a1.61,1.61,0,0,1-.85-0.23,1.59,1.59,0,0,1-.59-0.65,2,2,0,0,1-.21-0.93v-0.15a2.18,2.18,0,0,1,.21-1,1.65,1.65,0,0,1,.58-0.67,1.43,1.43,0,0,1,.8-0.24,1.33,1.33,0,0,1,1.07.46,1.86,1.86,0,0,1,.4,1.26v0.23h-2.64v0.08a1.55,1.55,0,0,0,.36,1,1.15,1.15,0,0,0,.91.42,1.34,1.34,0,0,0,.58-0.12,1.29,1.29,0,0,0,.46-0.38l0.26,0.19A1.49,1.49,0,0,1,983.6,615.72Zm-0.07-3.49a1,1,0,0,0-.78.34,1.56,1.56,0,0,0-.38.91h2.22v0a1.36,1.36,0,0,0-.3-0.87A0.94,0.94,0,0,0,983.52,612.23Z" transform="translate(-852.92 -117.05)"/><path class="cls-5" d="M986.17,612v0.63a1.46,1.46,0,0,1,.52-0.52,1.35,1.35,0,0,1,.69-0.18,1.11,1.11,0,0,1,.89.34,1.51,1.51,0,0,1,.29,1v2.43h-0.41v-2.43a1.13,1.13,0,0,0-.21-0.74,0.83,0.83,0,0,0-.66-0.24,1,1,0,0,0-.67.24,1.39,1.39,0,0,0-.43.64v2.53h-0.41V612h0.39Z" transform="translate(-852.92 -117.05)"/><path class="cls-5" d="M968.1,620.36a1.13,1.13,0,0,1-.22.69,1.31,1.31,0,0,1-.6.45,1.47,1.47,0,0,1,.69.48,1.19,1.19,0,0,1,.26.76,1.27,1.27,0,0,1-.43,1,2,2,0,0,1-2.3,0,1.27,1.27,0,0,1-.43-1,1.23,1.23,0,0,1,.25-0.76,1.4,1.4,0,0,1,.68-0.48,1.27,1.27,0,0,1-.59-0.45,1.16,1.16,0,0,1-.22-0.69,1.27,1.27,0,0,1,.4-1,1.7,1.7,0,0,1,2.11,0A1.27,1.27,0,0,1,968.1,620.36Zm-0.28,2.38a1,1,0,0,0-.33-0.76,1.35,1.35,0,0,0-1.69,0,1,1,0,0,0-.33.77,1,1,0,0,0,.32.76,1.44,1.44,0,0,0,1.71,0A1,1,0,0,0,967.83,622.73Zm-0.13-2.38a1,1,0,0,0-.29-0.71,1.15,1.15,0,0,0-1.51,0,1,1,0,0,0-.29.72,0.91,0.91,0,0,0,.29.7,1.2,1.2,0,0,0,1.51,0A0.91,0.91,0,0,0,967.69,620.35Z" transform="translate(-852.92 -117.05)"/><path class="cls-5" d="M969,620a1,1,0,0,1,.27-0.74,1,1,0,0,1,1.4,0,1.06,1.06,0,0,1,.27.76v0.24a1,1,0,0,1-.27.73,0.91,0.91,0,0,1-.7.29,0.94,0.94,0,0,1-.7-0.29,1,1,0,0,1-.28-0.76V620Zm0.33,0.26a0.78,0.78,0,0,0,.18.52,0.59,0.59,0,0,0,.47.21,0.57,0.57,0,0,0,.46-0.21,0.81,0.81,0,0,0,.17-0.54V620a0.78,0.78,0,0,0-.18-0.53,0.62,0.62,0,0,0-.93,0,0.8,0.8,0,0,0-.18.55v0.24Zm0.78,3.34-0.26-.16,2.43-3.89,0.26,0.16Zm1.39-.81a1,1,0,0,1,.28-0.74,0.91,0.91,0,0,1,.7-0.29,0.93,0.93,0,0,1,.7.29,1.05,1.05,0,0,1,.28.76v0.24a1,1,0,0,1-.28.74,0.91,0.91,0,0,1-.7.29,0.93,0.93,0,0,1-.7-0.29,1,1,0,0,1-.28-0.75v-0.25Zm0.33,0.26a0.78,0.78,0,0,0,.18.53,0.59,0.59,0,0,0,.47.21,0.58,0.58,0,0,0,.47-0.21,0.82,0.82,0,0,0,.17-0.54v-0.25a0.77,0.77,0,0,0-.18-0.53,0.64,0.64,0,0,0-.93,0,0.79,0.79,0,0,0-.18.54v0.25Z" transform="translate(-852.92 -117.05)"/><line class="cls-4" x1="146.92" y1="521.7" x2="146.92" y2="483.7"/><path class="cls-5" d="M1006.86,605.7a1.78,1.78,0,0,1-.56,1.2,1.86,1.86,0,0,1-1.27.42,1.74,1.74,0,0,1-1-.28,1.8,1.8,0,0,1-.66-0.78,2.8,2.8,0,0,1-.24-1.16v-0.65a2.83,2.83,0,0,1,.23-1.18,1.79,1.79,0,0,1,.67-0.79,1.82,1.82,0,0,1,1-.28,1.78,1.78,0,0,1,1.26.43,1.8,1.8,0,0,1,.54,1.19h-0.42a1.27,1.27,0,0,0-1.38-1.27,1.31,1.31,0,0,0-1.08.51,2.2,2.2,0,0,0-.4,1.4v0.61a2.21,2.21,0,0,0,.39,1.38,1.26,1.26,0,0,0,1.06.51,1.4,1.4,0,0,0,1-.32,1.51,1.51,0,0,0,.41-0.95h0.42Z" transform="translate(-852.92 -117.05)"/><path class="cls-5" d="M1008.19,604.18a1.45,1.45,0,0,1,.52-0.51,1.36,1.36,0,0,1,.69-0.18,1.11,1.11,0,0,1,.89.33,1.51,1.51,0,0,1,.29,1v2.43h-0.41v-2.43a1.13,1.13,0,0,0-.21-0.74,0.82,0.82,0,0,0-.66-0.24,1,1,0,0,0-.67.24,1.4,1.4,0,0,0-.43.64v2.53h-0.41V602h0.41v2.18Z" transform="translate(-852.92 -117.05)"/><path class="cls-5" d="M1013.06,607.32a1.61,1.61,0,0,1-.85-0.23,1.59,1.59,0,0,1-.59-0.65,2,2,0,0,1-.21-0.93v-0.15a2.17,2.17,0,0,1,.21-1,1.65,1.65,0,0,1,.58-0.67,1.42,1.42,0,0,1,.8-0.24,1.33,1.33,0,0,1,1.07.46,1.86,1.86,0,0,1,.4,1.26v0.23h-2.64v0.08a1.55,1.55,0,0,0,.36,1,1.15,1.15,0,0,0,.91.42,1.33,1.33,0,0,0,.58-0.12,1.28,1.28,0,0,0,.46-0.38l0.26,0.2A1.49,1.49,0,0,1,1013.06,607.32Zm-0.07-3.49a1,1,0,0,0-.78.34,1.56,1.56,0,0,0-.38.91H1014v0a1.36,1.36,0,0,0-.3-0.87A0.94,0.94,0,0,0,1013,603.83Z" transform="translate(-852.92 -117.05)"/><path class="cls-5" d="M1016.67,607.32a1.61,1.61,0,0,1-.85-0.23,1.59,1.59,0,0,1-.59-0.65,2,2,0,0,1-.21-0.93v-0.15a2.17,2.17,0,0,1,.21-1,1.65,1.65,0,0,1,.58-0.67,1.42,1.42,0,0,1,.8-0.24,1.33,1.33,0,0,1,1.07.46,1.86,1.86,0,0,1,.4,1.26v0.23h-2.64v0.08a1.55,1.55,0,0,0,.36,1,1.15,1.15,0,0,0,.91.42,1.33,1.33,0,0,0,.58-0.12,1.28,1.28,0,0,0,.46-0.38l0.26,0.2A1.49,1.49,0,0,1,1016.67,607.32Zm-0.07-3.49a1,1,0,0,0-.78.34,1.56,1.56,0,0,0-.38.91h2.22v0a1.36,1.36,0,0,0-.3-0.87A0.94,0.94,0,0,0,1016.6,603.83Z" transform="translate(-852.92 -117.05)"/><path class="cls-5" d="M1021.07,606.31a0.58,0.58,0,0,0-.24-0.49,1.88,1.88,0,0,0-.74-0.29,3.34,3.34,0,0,1-.76-0.24,1,1,0,0,1-.4-0.33,0.82,0.82,0,0,1-.13-0.47,0.88,0.88,0,0,1,.37-0.72,1.48,1.48,0,0,1,.94-0.29,1.53,1.53,0,0,1,1,.31,1,1,0,0,1,.37.8h-0.41a0.67,0.67,0,0,0-.27-0.54,1.23,1.23,0,0,0-1.33,0,0.55,0.55,0,0,0-.24.47,0.5,0.5,0,0,0,.2.43,2.16,2.16,0,0,0,.74.28,3.46,3.46,0,0,1,.81.27,1,1,0,0,1,.4.35,0.95,0.95,0,0,1-.25,1.24,1.61,1.61,0,0,1-1,.28,1.66,1.66,0,0,1-1-.31,1,1,0,0,1-.4-0.79h0.41a0.71,0.71,0,0,0,.3.56,1.24,1.24,0,0,0,.74.2,1.16,1.16,0,0,0,.69-0.19A0.56,0.56,0,0,0,1021.07,606.31Z" transform="translate(-852.92 -117.05)"/><path class="cls-5" d="M1023.83,607.32a1.61,1.61,0,0,1-.85-0.23,1.59,1.59,0,0,1-.59-0.65,2,2,0,0,1-.21-0.93v-0.15a2.17,2.17,0,0,1,.21-1,1.65,1.65,0,0,1,.58-0.67,1.42,1.42,0,0,1,.8-0.24,1.33,1.33,0,0,1,1.07.46,1.86,1.86,0,0,1,.4,1.26v0.23h-2.64v0.08a1.55,1.55,0,0,0,.36,1,1.15,1.15,0,0,0,.91.42,1.33,1.33,0,0,0,.58-0.12,1.28,1.28,0,0,0,.46-0.38l0.26,0.2A1.49,1.49,0,0,1,1023.83,607.32Zm-0.07-3.49a1,1,0,0,0-.78.34,1.56,1.56,0,0,0-.38.91h2.22v0a1.36,1.36,0,0,0-.3-0.87A0.94,0.94,0,0,0,1023.76,603.83Z" transform="translate(-852.92 -117.05)"/><path class="cls-5" d="M1006.15,614.43a0.8,0.8,0,0,0-.29-0.65,3.07,3.07,0,0,0-1.06-.46,3.73,3.73,0,0,1-1.13-.47,1.15,1.15,0,0,1,0-1.88,1.93,1.93,0,0,1,1.2-.36,2,2,0,0,1,.89.19,1.44,1.44,0,0,1,.61.53,1.4,1.4,0,0,1,.21.76h-0.42a1,1,0,0,0-.35-0.82,1.36,1.36,0,0,0-.94-0.31,1.47,1.47,0,0,0-.91.25,0.8,0.8,0,0,0-.34.67,0.75,0.75,0,0,0,.3.62,2.84,2.84,0,0,0,1,.42,4.61,4.61,0,0,1,1,.38,1.48,1.48,0,0,1,.52.47,1.18,1.18,0,0,1,.17.65,1.13,1.13,0,0,1-.47.94,2,2,0,0,1-1.24.36,2.42,2.42,0,0,1-1-.19,1.48,1.48,0,0,1-.67-0.53,1.36,1.36,0,0,1-.23-0.78h0.42a1,1,0,0,0,.39.83,1.66,1.66,0,0,0,1,.3,1.55,1.55,0,0,0,.93-0.26A0.8,0.8,0,0,0,1006.15,614.43Z" transform="translate(-852.92 -117.05)"/><path class="cls-5" d="M1008.27,614.8l0.06,0.32,0.08-.34,0.89-2.83h0.35l0.88,2.81,0.1,0.39,0.08-.36,0.76-2.84h0.42l-1.08,3.7h-0.35l-1-2.93,0-.2,0,0.21-0.93,2.93h-0.35l-1.07-3.7h0.42Z" transform="translate(-852.92 -117.05)"/><path class="cls-5" d="M1014.09,615.72a1.61,1.61,0,0,1-.85-0.23,1.59,1.59,0,0,1-.59-0.65,2,2,0,0,1-.21-0.93v-0.15a2.18,2.18,0,0,1,.21-1,1.65,1.65,0,0,1,.58-0.67,1.43,1.43,0,0,1,.8-0.24,1.33,1.33,0,0,1,1.07.46,1.86,1.86,0,0,1,.4,1.26v0.23h-2.64v0.08a1.55,1.55,0,0,0,.36,1,1.15,1.15,0,0,0,.91.42,1.34,1.34,0,0,0,.58-0.12,1.29,1.29,0,0,0,.46-0.38l0.26,0.19A1.49,1.49,0,0,1,1014.09,615.72Zm-0.07-3.49a1,1,0,0,0-.78.34,1.56,1.56,0,0,0-.38.91h2.22v0a1.36,1.36,0,0,0-.3-0.87A0.94,0.94,0,0,0,1014,612.23Z" transform="translate(-852.92 -117.05)"/><path class="cls-5" d="M1016.11,613.77a2.22,2.22,0,0,1,.38-1.37,1.24,1.24,0,0,1,1-.51,1.29,1.29,0,0,1,1.14.59V610.4h0.41v5.25h-0.38l0-.49a1.32,1.32,0,0,1-1.16.56,1.23,1.23,0,0,1-1-.52,2.24,2.24,0,0,1-.39-1.39v0Zm0.41,0.07a1.93,1.93,0,0,0,.28,1.12,0.92,0.92,0,0,0,.8.41,1.1,1.1,0,0,0,1.07-.67V613a1.09,1.09,0,0,0-1.07-.72,0.93,0.93,0,0,0-.8.41A2.06,2.06,0,0,0,1016.53,613.84Z" transform="translate(-852.92 -117.05)"/><path class="cls-5" d="M1021.6,615.72a1.61,1.61,0,0,1-.85-0.23,1.59,1.59,0,0,1-.59-0.65,2,2,0,0,1-.21-0.93v-0.15a2.18,2.18,0,0,1,.21-1,1.65,1.65,0,0,1,.58-0.67,1.43,1.43,0,0,1,.8-0.24,1.33,1.33,0,0,1,1.07.46,1.86,1.86,0,0,1,.4,1.26v0.23h-2.64v0.08a1.55,1.55,0,0,0,.36,1,1.15,1.15,0,0,0,.91.42,1.34,1.34,0,0,0,.58-0.12,1.29,1.29,0,0,0,.46-0.38l0.26,0.19A1.49,1.49,0,0,1,1021.6,615.72Zm-0.07-3.49a1,1,0,0,0-.78.34,1.56,1.56,0,0,0-.38.91h2.22v0a1.36,1.36,0,0,0-.3-0.87A0.94,0.94,0,0,0,1021.52,612.23Z" transform="translate(-852.92 -117.05)"/><path class="cls-5" d="M1024.17,612v0.63a1.46,1.46,0,0,1,.52-0.52,1.35,1.35,0,0,1,.69-0.18,1.11,1.11,0,0,1,.89.34,1.51,1.51,0,0,1,.29,1v2.43h-0.41v-2.43a1.13,1.13,0,0,0-.21-0.74,0.83,0.83,0,0,0-.66-0.24,1,1,0,0,0-.67.24,1.39,1.39,0,0,0-.43.64v2.53h-0.41V612h0.39Z" transform="translate(-852.92 -117.05)"/><path class="cls-5" d="M1006.1,620.36a1.13,1.13,0,0,1-.22.69,1.31,1.31,0,0,1-.6.45,1.47,1.47,0,0,1,.69.48,1.19,1.19,0,0,1,.26.76,1.27,1.27,0,0,1-.43,1,2,2,0,0,1-2.3,0,1.27,1.27,0,0,1-.43-1,1.23,1.23,0,0,1,.25-0.76,1.4,1.4,0,0,1,.68-0.48,1.27,1.27,0,0,1-.59-0.45,1.16,1.16,0,0,1-.22-0.69,1.27,1.27,0,0,1,.4-1,1.7,1.7,0,0,1,2.11,0A1.27,1.27,0,0,1,1006.1,620.36Zm-0.28,2.38a1,1,0,0,0-.33-0.76,1.35,1.35,0,0,0-1.69,0,1,1,0,0,0-.33.77,1,1,0,0,0,.32.76,1.44,1.44,0,0,0,1.71,0A1,1,0,0,0,1005.83,622.73Zm-0.13-2.38a1,1,0,0,0-.29-0.71,1.15,1.15,0,0,0-1.51,0,1,1,0,0,0-.29.72,0.91,0.91,0,0,0,.29.7,1.2,1.2,0,0,0,1.51,0A0.91,0.91,0,0,0,1005.69,620.35Z" transform="translate(-852.92 -117.05)"/><path class="cls-5" d="M1007,620a1,1,0,0,1,.27-0.74,1,1,0,0,1,1.4,0,1.06,1.06,0,0,1,.27.76v0.24a1,1,0,0,1-.27.73,0.91,0.91,0,0,1-.7.29,0.94,0.94,0,0,1-.7-0.29,1,1,0,0,1-.28-0.76V620Zm0.33,0.26a0.78,0.78,0,0,0,.18.52,0.59,0.59,0,0,0,.47.21,0.57,0.57,0,0,0,.46-0.21,0.81,0.81,0,0,0,.17-0.54V620a0.78,0.78,0,0,0-.18-0.53,0.62,0.62,0,0,0-.93,0,0.8,0.8,0,0,0-.18.55v0.24Zm0.78,3.34-0.26-.16,2.43-3.89,0.26,0.16Zm1.39-.81a1,1,0,0,1,.28-0.74,0.91,0.91,0,0,1,.7-0.29,0.93,0.93,0,0,1,.7.29,1.05,1.05,0,0,1,.28.76v0.24a1,1,0,0,1-.28.74,0.91,0.91,0,0,1-.7.29,0.93,0.93,0,0,1-.7-0.29,1,1,0,0,1-.28-0.75v-0.25Zm0.33,0.26a0.78,0.78,0,0,0,.18.53,0.59,0.59,0,0,0,.47.21,0.58,0.58,0,0,0,.47-0.21,0.82,0.82,0,0,0,.17-0.54v-0.25a0.77,0.77,0,0,0-.18-0.53,0.64,0.64,0,0,0-.93,0,0.79,0.79,0,0,0-.18.54v0.25Z" transform="translate(-852.92 -117.05)"/><line class="cls-4" x1="146.92" y1="521.7" x2="146.92" y2="483.7"/><line class="cls-4" x1="218.08" y1="552.12" x2="105.73" y2="552.12"/><line class="cls-4" x1="218.08" y1="594.12" x2="105.73" y2="594.12"/><line class="cls-4" x1="217.36" y1="646.12" x2="105" y2="646.12"/><line class="cls-4" x1="217.36" y1="705.12" x2="105" y2="705.12"/><path class="cls-5" d="M1038.23,665.35H1036l-0.51,1.4H1035l1.88-5h0.4l1.88,5h-0.44Zm-2.13-.36h2l-1-2.71Z" transform="translate(-852.92 -117.05)"/><path class="cls-5" d="M1039.66,664.87a2.22,2.22,0,0,1,.38-1.37,1.24,1.24,0,0,1,1-.51,1.28,1.28,0,0,1,1.15.6l0-.53h0.38v3.62a1.56,1.56,0,0,1-.4,1.13,1.43,1.43,0,0,1-1.08.42,1.65,1.65,0,0,1-.74-0.17,1.43,1.43,0,0,1-.55-0.46l0.23-.25a1.3,1.3,0,0,0,1,.53,1,1,0,0,0,.8-0.3,1.2,1.2,0,0,0,.3-0.84v-0.46a1.32,1.32,0,0,1-1.14.55,1.23,1.23,0,0,1-1-.51,2.24,2.24,0,0,1-.39-1.38v-0.05Zm0.41,0.07a1.93,1.93,0,0,0,.28,1.12,0.92,0.92,0,0,0,.8.41,1.09,1.09,0,0,0,1.07-.68v-1.72a1.17,1.17,0,0,0-.41-0.54,1.11,1.11,0,0,0-.65-0.19,0.93,0.93,0,0,0-.8.41A2.06,2.06,0,0,0,1040.07,664.94Z" transform="translate(-852.92 -117.05)"/><path class="cls-5" d="M1045.41,663.4l-0.28,0a1,1,0,0,0-.65.21,1.18,1.18,0,0,0-.38.62v2.54h-0.41v-3.7h0.4v0.59a1.09,1.09,0,0,1,1-.66,0.67,0.67,0,0,1,.27,0v0.37Z" transform="translate(-852.92 -117.05)"/><path class="cls-5" d="M1046,662a0.29,0.29,0,0,1,.49-0.2,0.27,0.27,0,0,1,.08.2,0.26,0.26,0,0,1-.08.19,0.27,0.27,0,0,1-.21.08,0.27,0.27,0,0,1-.21-0.08A0.27,0.27,0,0,1,1046,662Zm0.48,4.77h-0.41v-3.7h0.41v3.7Z" transform="translate(-852.92 -117.05)"/><path class="cls-5" d="M1049,666.47a1.08,1.08,0,0,0,.72-0.24,0.85,0.85,0,0,0,.31-0.62h0.39a1.16,1.16,0,0,1-.21.62,1.34,1.34,0,0,1-.52.44,1.57,1.57,0,0,1-.69.16,1.43,1.43,0,0,1-1.15-.51,2,2,0,0,1-.43-1.36v-0.12a2.31,2.31,0,0,1,.19-1,1.48,1.48,0,0,1,.55-0.65A1.52,1.52,0,0,1,1049,663a1.42,1.42,0,0,1,1,.36,1.32,1.32,0,0,1,.42,1H1050a1,1,0,0,0-1-1,1,1,0,0,0-.86.4,1.81,1.81,0,0,0-.31,1.12V665a1.77,1.77,0,0,0,.31,1.1A1,1,0,0,0,1049,666.47Z" transform="translate(-852.92 -117.05)"/><path class="cls-5" d="M1053.61,666.28a1.33,1.33,0,0,1-1.18.54,1.14,1.14,0,0,1-.9-0.34,1.51,1.51,0,0,1-.31-1v-2.41h0.41v2.35a0.86,0.86,0,0,0,.86,1.06,1,1,0,0,0,1.12-.74v-2.68H1054v3.7h-0.4v-0.47Z" transform="translate(-852.92 -117.05)"/><path class="cls-5" d="M1055.54,666.75h-0.41V661.5h0.41v5.25Z" transform="translate(-852.92 -117.05)"/><path class="cls-5" d="M1057.28,662.1v0.95H1058v0.33h-0.77v2.47a0.77,0.77,0,0,0,.11.46,0.43,0.43,0,0,0,.37.15l0.33,0,0,0.33a1.35,1.35,0,0,1-.44.06,0.73,0.73,0,0,1-.61-0.24,1.15,1.15,0,0,1-.19-0.72v-2.47h-0.68v-0.33h0.68V662.1h0.41Z" transform="translate(-852.92 -117.05)"/><path class="cls-5" d="M1061.28,666.28a1.33,1.33,0,0,1-1.18.54,1.14,1.14,0,0,1-.9-0.34,1.51,1.51,0,0,1-.31-1v-2.41h0.41v2.35a0.86,0.86,0,0,0,.86,1.06,1,1,0,0,0,1.12-.74v-2.68h0.41v3.7h-0.4v-0.47Z" transform="translate(-852.92 -117.05)"/><path class="cls-5" d="M1064.45,663.4l-0.28,0a1,1,0,0,0-.65.21,1.18,1.18,0,0,0-.38.62v2.54h-0.41v-3.7h0.4v0.59a1.09,1.09,0,0,1,1-.66,0.67,0.67,0,0,1,.27,0v0.37Z" transform="translate(-852.92 -117.05)"/><path class="cls-5" d="M1066.46,666.82a1.61,1.61,0,0,1-.85-0.23,1.59,1.59,0,0,1-.59-0.65,2,2,0,0,1-.21-0.93v-0.15a2.17,2.17,0,0,1,.21-1,1.64,1.64,0,0,1,.58-0.67,1.42,1.42,0,0,1,.8-0.24,1.33,1.33,0,0,1,1.07.46,1.86,1.86,0,0,1,.4,1.26v0.23h-2.64V665a1.55,1.55,0,0,0,.36,1,1.15,1.15,0,0,0,.91.42,1.34,1.34,0,0,0,.58-0.12,1.29,1.29,0,0,0,.46-0.38l0.26,0.19A1.49,1.49,0,0,1,1066.46,666.82Zm-0.07-3.49a1,1,0,0,0-.78.34,1.56,1.56,0,0,0-.38.91h2.22v0a1.36,1.36,0,0,0-.3-0.87A0.94,0.94,0,0,0,1066.39,663.33Z" transform="translate(-852.92 -117.05)"/><path class="cls-5" d="M1030.78,706.72v2h-0.42v-5h1.7a1.79,1.79,0,0,1,1.23.4,1.56,1.56,0,0,1,0,2.17,1.84,1.84,0,0,1-1.25.38h-1.27Zm0-.36h1.28a1.35,1.35,0,0,0,.93-0.29,1,1,0,0,0,.32-0.81,1.09,1.09,0,0,0-.32-0.82,1.28,1.28,0,0,0-.91-0.31h-1.3v2.24Z" transform="translate(-852.92 -117.05)"/><path class="cls-5" d="M1034.3,706.85a2.17,2.17,0,0,1,.21-1,1.55,1.55,0,0,1,1.44-.9,1.52,1.52,0,0,1,1.2.52,2,2,0,0,1,.46,1.37V707a2.2,2.2,0,0,1-.21,1,1.55,1.55,0,0,1-.58.66,1.61,1.61,0,0,1-.86.23,1.52,1.52,0,0,1-1.19-.52,2,2,0,0,1-.46-1.37v-0.08Zm0.41,0.11a1.68,1.68,0,0,0,.34,1.09,1.16,1.16,0,0,0,1.8,0,1.74,1.74,0,0,0,.34-1.12v-0.08a1.87,1.87,0,0,0-.16-0.78,1.25,1.25,0,0,0-.44-0.54,1.13,1.13,0,0,0-.65-0.19,1.09,1.09,0,0,0-.89.43,1.74,1.74,0,0,0-.34,1.12V707Z" transform="translate(-852.92 -117.05)"/><path class="cls-5" d="M1040.67,707.81a0.58,0.58,0,0,0-.24-0.49,1.88,1.88,0,0,0-.74-0.29,3.34,3.34,0,0,1-.76-0.24,1,1,0,0,1-.4-0.33,0.82,0.82,0,0,1-.13-0.47,0.88,0.88,0,0,1,.37-0.72,1.48,1.48,0,0,1,.94-0.29,1.52,1.52,0,0,1,1,.31,1,1,0,0,1,.37.8h-0.41a0.66,0.66,0,0,0-.27-0.54,1.23,1.23,0,0,0-1.33,0,0.55,0.55,0,0,0-.24.47,0.51,0.51,0,0,0,.2.43,2.18,2.18,0,0,0,.74.28,3.46,3.46,0,0,1,.81.27,1,1,0,0,1,.4.35,0.88,0.88,0,0,1,.13.49,0.89,0.89,0,0,1-.38.75,1.61,1.61,0,0,1-1,.28,1.66,1.66,0,0,1-1-.31,1,1,0,0,1-.4-0.79h0.41a0.71,0.71,0,0,0,.3.56,1.24,1.24,0,0,0,.74.2,1.16,1.16,0,0,0,.69-0.19A0.57,0.57,0,0,0,1040.67,707.81Z" transform="translate(-852.92 -117.05)"/><path class="cls-5" d="M1042.63,704.1v0.95h0.77v0.33h-0.77v2.47a0.77,0.77,0,0,0,.11.46,0.43,0.43,0,0,0,.37.15l0.33,0,0,0.33a1.35,1.35,0,0,1-.44.06,0.73,0.73,0,0,1-.61-0.24,1.15,1.15,0,0,1-.19-0.72v-2.47h-0.68v-0.33h0.68V704.1h0.41Z" transform="translate(-852.92 -117.05)"/><path class="cls-5" d="M1049.73,708.75h-0.42v-2.39h-2.84v2.39H1046v-5h0.42V706h2.84v-2.24h0.42v5Z" transform="translate(-852.92 -117.05)"/><path class="cls-5" d="M1053.23,708.75a2,2,0,0,1-.08-0.52,1.42,1.42,0,0,1-.55.43,1.67,1.67,0,0,1-.71.15,1.24,1.24,0,0,1-.86-0.3,1,1,0,0,1-.33-0.75,1,1,0,0,1,.45-0.85,2.17,2.17,0,0,1,1.25-.31h0.74v-0.42a0.81,0.81,0,0,0-.24-0.62,1,1,0,0,0-.71-0.23,1.12,1.12,0,0,0-.71.22,0.65,0.65,0,0,0-.28.53h-0.41a1,1,0,0,1,.41-0.76,1.58,1.58,0,0,1,1-.32,1.44,1.44,0,0,1,1,.31,1.11,1.11,0,0,1,.37.86v1.75a2.19,2.19,0,0,0,.11.8v0h-0.44Zm-1.29-.29a1.38,1.38,0,0,0,.73-0.2,1.16,1.16,0,0,0,.47-0.53v-0.81h-0.73a1.83,1.83,0,0,0-1,.22,0.67,0.67,0,0,0-.35.6,0.66,0.66,0,0,0,.23.52A0.87,0.87,0,0,0,1051.95,708.46Z" transform="translate(-852.92 -117.05)"/><path class="cls-5" d="M1056.36,705.4l-0.28,0a1,1,0,0,0-.65.21,1.18,1.18,0,0,0-.38.62v2.54h-0.41v-3.7h0.4v0.59a1.09,1.09,0,0,1,1-.66,0.67,0.67,0,0,1,.27,0v0.37Z" transform="translate(-852.92 -117.05)"/><path class="cls-5" d="M1058.22,708.19l1.12-3.13h0.42l-1.38,3.7h-0.33l-1.39-3.7h0.42Z" transform="translate(-852.92 -117.05)"/><path class="cls-5" d="M1061.82,708.82a1.61,1.61,0,0,1-.85-0.23,1.59,1.59,0,0,1-.59-0.65,2,2,0,0,1-.21-0.93v-0.15a2.17,2.17,0,0,1,.21-1,1.64,1.64,0,0,1,.58-0.67,1.42,1.42,0,0,1,.8-0.24,1.33,1.33,0,0,1,1.07.46,1.86,1.86,0,0,1,.4,1.26v0.23h-2.64V707a1.55,1.55,0,0,0,.36,1,1.15,1.15,0,0,0,.91.42,1.34,1.34,0,0,0,.58-0.12,1.29,1.29,0,0,0,.46-0.38l0.26,0.19A1.49,1.49,0,0,1,1061.82,708.82Zm-0.07-3.49a1,1,0,0,0-.78.34,1.56,1.56,0,0,0-.38.91h2.22v0a1.36,1.36,0,0,0-.3-0.87A0.94,0.94,0,0,0,1061.75,705.33Z" transform="translate(-852.92 -117.05)"/><path class="cls-5" d="M1066.22,707.81a0.58,0.58,0,0,0-.24-0.49,1.88,1.88,0,0,0-.74-0.29,3.34,3.34,0,0,1-.76-0.24,1,1,0,0,1-.4-0.33,0.82,0.82,0,0,1-.13-0.47,0.88,0.88,0,0,1,.37-0.72,1.48,1.48,0,0,1,.94-0.29,1.52,1.52,0,0,1,1,.31,1,1,0,0,1,.37.8h-0.41a0.66,0.66,0,0,0-.27-0.54,1.23,1.23,0,0,0-1.33,0,0.55,0.55,0,0,0-.24.47,0.51,0.51,0,0,0,.2.43,2.18,2.18,0,0,0,.74.28,3.46,3.46,0,0,1,.81.27,1,1,0,0,1,.4.35,0.88,0.88,0,0,1,.13.49,0.89,0.89,0,0,1-.38.75,1.61,1.61,0,0,1-1,.28,1.66,1.66,0,0,1-1-.31,1,1,0,0,1-.4-0.79h0.41a0.71,0.71,0,0,0,.3.56,1.24,1.24,0,0,0,.74.2,1.16,1.16,0,0,0,.69-0.19A0.57,0.57,0,0,0,1066.22,707.81Z" transform="translate(-852.92 -117.05)"/><path class="cls-5" d="M1068.19,704.1v0.95H1069v0.33h-0.77v2.47a0.77,0.77,0,0,0,.11.46,0.43,0.43,0,0,0,.37.15l0.33,0,0,0.33a1.35,1.35,0,0,1-.44.06,0.73,0.73,0,0,1-.61-0.24,1.15,1.15,0,0,1-.19-0.72v-2.47h-0.68v-0.33h0.68V704.1h0.41Z" transform="translate(-852.92 -117.05)"/><path class="cls-5" d="M1036,758.72v2h-0.42v-5h1.7a1.79,1.79,0,0,1,1.23.4,1.56,1.56,0,0,1,0,2.17,1.84,1.84,0,0,1-1.25.38H1036Zm0-.36h1.28a1.35,1.35,0,0,0,.93-0.29,1,1,0,0,0,.32-0.81,1.09,1.09,0,0,0-.32-0.82,1.28,1.28,0,0,0-.91-0.31H1036v2.24Z" transform="translate(-852.92 -117.05)"/><path class="cls-5" d="M1041.47,757.4l-0.28,0a1,1,0,0,0-.65.21,1.18,1.18,0,0,0-.38.62v2.54h-0.41v-3.7h0.4v0.59a1.09,1.09,0,0,1,1-.66,0.67,0.67,0,0,1,.27,0v0.37Z" transform="translate(-852.92 -117.05)"/><path class="cls-5" d="M1041.82,758.85a2.17,2.17,0,0,1,.21-1,1.55,1.55,0,0,1,1.44-.9,1.52,1.52,0,0,1,1.2.52,2,2,0,0,1,.46,1.37V759a2.2,2.2,0,0,1-.21,1,1.55,1.55,0,0,1-.58.66,1.61,1.61,0,0,1-.86.23,1.52,1.52,0,0,1-1.19-.52,2,2,0,0,1-.46-1.37v-0.08Zm0.41,0.11a1.68,1.68,0,0,0,.34,1.09,1.16,1.16,0,0,0,1.8,0,1.74,1.74,0,0,0,.34-1.12v-0.08a1.87,1.87,0,0,0-.16-0.78,1.25,1.25,0,0,0-.44-0.54,1.13,1.13,0,0,0-.65-0.19,1.09,1.09,0,0,0-.89.43,1.74,1.74,0,0,0-.34,1.12V759Z" transform="translate(-852.92 -117.05)"/><path class="cls-5" d="M1047.33,760.47a1.08,1.08,0,0,0,.72-0.24,0.85,0.85,0,0,0,.31-0.62h0.39a1.16,1.16,0,0,1-.21.62,1.34,1.34,0,0,1-.52.44,1.57,1.57,0,0,1-.69.16,1.43,1.43,0,0,1-1.15-.51,2,2,0,0,1-.43-1.36v-0.12a2.31,2.31,0,0,1,.19-1,1.48,1.48,0,0,1,.55-0.65,1.52,1.52,0,0,1,.83-0.23,1.42,1.42,0,0,1,1,.36,1.32,1.32,0,0,1,.42,1h-0.39a1,1,0,0,0-1-1,1,1,0,0,0-.86.4,1.81,1.81,0,0,0-.31,1.12V759a1.77,1.77,0,0,0,.31,1.1A1,1,0,0,0,1047.33,760.47Z" transform="translate(-852.92 -117.05)"/><path class="cls-5" d="M1051,760.82a1.61,1.61,0,0,1-.85-0.23,1.59,1.59,0,0,1-.59-0.65,2,2,0,0,1-.21-0.93v-0.15a2.17,2.17,0,0,1,.21-1,1.64,1.64,0,0,1,.58-0.67,1.42,1.42,0,0,1,.8-0.24,1.33,1.33,0,0,1,1.07.46,1.86,1.86,0,0,1,.4,1.26v0.23h-2.64V759a1.55,1.55,0,0,0,.36,1,1.15,1.15,0,0,0,.91.42,1.34,1.34,0,0,0,.58-0.12,1.29,1.29,0,0,0,.46-0.38l0.26,0.19A1.49,1.49,0,0,1,1051,760.82Zm-0.07-3.49a1,1,0,0,0-.78.34,1.56,1.56,0,0,0-.38.91H1052v0a1.36,1.36,0,0,0-.3-0.87A0.94,0.94,0,0,0,1050.93,757.33Z" transform="translate(-852.92 -117.05)"/><path class="cls-5" d="M1055.4,759.81a0.58,0.58,0,0,0-.24-0.49,1.88,1.88,0,0,0-.74-0.29,3.34,3.34,0,0,1-.76-0.24,1,1,0,0,1-.4-0.33,0.82,0.82,0,0,1-.13-0.47,0.88,0.88,0,0,1,.37-0.72,1.48,1.48,0,0,1,.94-0.29,1.52,1.52,0,0,1,1,.31,1,1,0,0,1,.37.8h-0.41a0.66,0.66,0,0,0-.27-0.54,1.23,1.23,0,0,0-1.33,0,0.55,0.55,0,0,0-.24.47,0.51,0.51,0,0,0,.2.43,2.18,2.18,0,0,0,.74.28,3.46,3.46,0,0,1,.81.27,1,1,0,0,1,.4.35,0.88,0.88,0,0,1,.13.49,0.89,0.89,0,0,1-.38.75,1.61,1.61,0,0,1-1,.28,1.66,1.66,0,0,1-1-.31,1,1,0,0,1-.4-0.79h0.41a0.71,0.71,0,0,0,.3.56,1.24,1.24,0,0,0,.74.2,1.16,1.16,0,0,0,.69-0.19A0.57,0.57,0,0,0,1055.4,759.81Z" transform="translate(-852.92 -117.05)"/><path class="cls-5" d="M1058.95,759.81a0.58,0.58,0,0,0-.24-0.49A1.88,1.88,0,0,0,1058,759a3.34,3.34,0,0,1-.76-0.24,1,1,0,0,1-.4-0.33,0.82,0.82,0,0,1-.13-0.47,0.88,0.88,0,0,1,.37-0.72A1.48,1.48,0,0,1,1058,757a1.52,1.52,0,0,1,1,.31,1,1,0,0,1,.37.8h-0.41a0.66,0.66,0,0,0-.27-0.54,1.23,1.23,0,0,0-1.33,0,0.55,0.55,0,0,0-.24.47,0.51,0.51,0,0,0,.2.43,2.18,2.18,0,0,0,.74.28,3.46,3.46,0,0,1,.81.27,1,1,0,0,1,.4.35,0.88,0.88,0,0,1,.13.49,0.89,0.89,0,0,1-.38.75,1.61,1.61,0,0,1-1,.28,1.66,1.66,0,0,1-1-.31,1,1,0,0,1-.4-0.79H1057a0.71,0.71,0,0,0,.3.56,1.24,1.24,0,0,0,.74.2,1.16,1.16,0,0,0,.69-0.19A0.57,0.57,0,0,0,1058.95,759.81Z" transform="translate(-852.92 -117.05)"/><path class="cls-5" d="M1060.25,756a0.29,0.29,0,0,1,.49-0.2,0.27,0.27,0,0,1,.08.2,0.26,0.26,0,0,1-.08.19,0.27,0.27,0,0,1-.21.08,0.27,0.27,0,0,1-.21-0.08A0.27,0.27,0,0,1,1060.25,756Zm0.48,4.77h-0.41v-3.7h0.41v3.7Z" transform="translate(-852.92 -117.05)"/><path class="cls-5" d="M1062.24,757.05v0.63a1.46,1.46,0,0,1,.52-0.52,1.34,1.34,0,0,1,.69-0.18,1.11,1.11,0,0,1,.89.33,1.51,1.51,0,0,1,.29,1v2.43h-0.41v-2.43a1.14,1.14,0,0,0-.21-0.74,0.83,0.83,0,0,0-.66-0.24,1,1,0,0,0-.67.24,1.4,1.4,0,0,0-.43.64v2.53h-0.41v-3.7h0.39Z" transform="translate(-852.92 -117.05)"/><path class="cls-5" d="M1065.53,758.87a2.22,2.22,0,0,1,.38-1.37,1.24,1.24,0,0,1,1-.51,1.28,1.28,0,0,1,1.15.6l0-.53h0.38v3.62a1.56,1.56,0,0,1-.4,1.13,1.43,1.43,0,0,1-1.08.42,1.65,1.65,0,0,1-.74-0.17,1.43,1.43,0,0,1-.55-0.46l0.23-.25a1.3,1.3,0,0,0,1,.53,1,1,0,0,0,.8-0.3,1.2,1.2,0,0,0,.3-0.84v-0.46a1.32,1.32,0,0,1-1.14.55,1.23,1.23,0,0,1-1-.51,2.24,2.24,0,0,1-.39-1.38v-0.05Zm0.41,0.07a1.93,1.93,0,0,0,.28,1.12,0.92,0.92,0,0,0,.8.41,1.09,1.09,0,0,0,1.07-.68v-1.72a1.17,1.17,0,0,0-.41-0.54,1.11,1.11,0,0,0-.65-0.19,0.93,0.93,0,0,0-.8.41A2.06,2.06,0,0,0,1065.94,758.94Z" transform="translate(-852.92 -117.05)"/><path class="cls-5" d="M1034.27,818.75v-5h1.39a2.17,2.17,0,0,1,1.1.28,1.93,1.93,0,0,1,.76.8,2.51,2.51,0,0,1,.27,1.18v0.46a2.52,2.52,0,0,1-.27,1.18,1.92,1.92,0,0,1-.76.8,2.23,2.23,0,0,1-1.13.28h-1.36Zm0.42-4.62v4.27h0.94a1.62,1.62,0,0,0,1.26-.52,2,2,0,0,0,.47-1.41V816a2,2,0,0,0-.47-1.37,1.6,1.6,0,0,0-1.23-.52h-1Z" transform="translate(-852.92 -117.05)"/><path class="cls-5" d="M1038.74,814a0.29,0.29,0,0,1,.49-0.2,0.27,0.27,0,0,1,.08.2,0.26,0.26,0,0,1-.08.19,0.27,0.27,0,0,1-.21.08,0.27,0.27,0,0,1-.21-0.08A0.27,0.27,0,0,1,1038.74,814Zm0.48,4.77h-0.41v-3.7h0.41v3.7Z" transform="translate(-852.92 -117.05)"/><path class="cls-5" d="M1042.54,817.81a0.58,0.58,0,0,0-.24-0.49,1.88,1.88,0,0,0-.74-0.29,3.34,3.34,0,0,1-.76-0.24,1,1,0,0,1-.4-0.33,0.82,0.82,0,0,1-.13-0.47,0.88,0.88,0,0,1,.37-0.72,1.48,1.48,0,0,1,.94-0.29,1.52,1.52,0,0,1,1,.31,1,1,0,0,1,.37.8h-0.41a0.66,0.66,0,0,0-.27-0.54,1.23,1.23,0,0,0-1.33,0,0.55,0.55,0,0,0-.24.47,0.51,0.51,0,0,0,.2.43,2.18,2.18,0,0,0,.74.28,3.46,3.46,0,0,1,.81.27,1,1,0,0,1,.4.35,0.88,0.88,0,0,1,.13.49,0.89,0.89,0,0,1-.38.75,1.61,1.61,0,0,1-1,.28,1.66,1.66,0,0,1-1-.31,1,1,0,0,1-.4-0.79h0.41a0.71,0.71,0,0,0,.3.56,1.24,1.24,0,0,0,.74.2,1.16,1.16,0,0,0,.69-0.19A0.57,0.57,0,0,0,1042.54,817.81Z" transform="translate(-852.92 -117.05)"/><path class="cls-5" d="M1044.51,814.1v0.95h0.77v0.33h-0.77v2.47a0.77,0.77,0,0,0,.11.46,0.43,0.43,0,0,0,.37.15l0.33,0,0,0.33a1.35,1.35,0,0,1-.44.06,0.73,0.73,0,0,1-.61-0.24,1.15,1.15,0,0,1-.19-0.72v-2.47h-0.68v-0.33h0.68V814.1h0.41Z" transform="translate(-852.92 -117.05)"/><path class="cls-5" d="M1047.83,815.4l-0.28,0a1,1,0,0,0-.65.21,1.18,1.18,0,0,0-.38.62v2.54h-0.41v-3.7h0.4v0.59a1.09,1.09,0,0,1,1-.66,0.67,0.67,0,0,1,.27,0v0.37Z" transform="translate(-852.92 -117.05)"/><path class="cls-5" d="M1048.45,814a0.29,0.29,0,0,1,.49-0.2,0.27,0.27,0,0,1,.08.2,0.26,0.26,0,0,1-.08.19,0.27,0.27,0,0,1-.21.08,0.27,0.27,0,0,1-.21-0.08A0.27,0.27,0,0,1,1048.45,814Zm0.48,4.77h-0.41v-3.7h0.41v3.7Z" transform="translate(-852.92 -117.05)"/><path class="cls-5" d="M1053,816.94a2.22,2.22,0,0,1-.38,1.37,1.22,1.22,0,0,1-1,.51,1.33,1.33,0,0,1-1.17-.57l0,0.51H1050V813.5h0.41v2.09a1.28,1.28,0,0,1,1.16-.6,1.23,1.23,0,0,1,1,.5,2.25,2.25,0,0,1,.38,1.39v0.06Zm-0.41-.07a1.92,1.92,0,0,0-.28-1.13,0.93,0.93,0,0,0-.8-0.4,1.13,1.13,0,0,0-.67.19,1.17,1.17,0,0,0-.41.57v1.67a1.1,1.1,0,0,0,1.09.7,0.92,0.92,0,0,0,.79-0.4A2.06,2.06,0,0,0,1052.61,816.87Z" transform="translate(-852.92 -117.05)"/><path class="cls-5" d="M1056.3,818.28a1.33,1.33,0,0,1-1.18.54,1.14,1.14,0,0,1-.9-0.34,1.51,1.51,0,0,1-.31-1v-2.41h0.41v2.35a0.86,0.86,0,0,0,.86,1.06,1,1,0,0,0,1.12-.74v-2.68h0.41v3.7h-0.4v-0.47Z" transform="translate(-852.92 -117.05)"/><path class="cls-5" d="M1058.4,814.1v0.95h0.77v0.33h-0.77v2.47a0.77,0.77,0,0,0,.11.46,0.43,0.43,0,0,0,.37.15l0.33,0,0,0.33a1.35,1.35,0,0,1-.44.06,0.73,0.73,0,0,1-.61-0.24,1.15,1.15,0,0,1-.19-0.72v-2.47h-0.68v-0.33H1058V814.1h0.41Z" transform="translate(-852.92 -117.05)"/><path class="cls-5" d="M1060,814a0.29,0.29,0,0,1,.49-0.2,0.27,0.27,0,0,1,.08.2,0.26,0.26,0,0,1-.08.19,0.27,0.27,0,0,1-.21.08,0.27,0.27,0,0,1-.21-0.08A0.27,0.27,0,0,1,1060,814Zm0.48,4.77h-0.41v-3.7h0.41v3.7Z" transform="translate(-852.92 -117.05)"/><path class="cls-5" d="M1061.36,816.85a2.17,2.17,0,0,1,.21-1,1.55,1.55,0,0,1,1.44-.9,1.52,1.52,0,0,1,1.2.52,2,2,0,0,1,.46,1.37V817a2.2,2.2,0,0,1-.21,1,1.55,1.55,0,0,1-.58.66,1.61,1.61,0,0,1-.86.23,1.52,1.52,0,0,1-1.19-.52,2,2,0,0,1-.46-1.37v-0.08Zm0.41,0.11a1.68,1.68,0,0,0,.34,1.09,1.16,1.16,0,0,0,1.8,0,1.74,1.74,0,0,0,.34-1.12v-0.08a1.87,1.87,0,0,0-.16-0.78,1.25,1.25,0,0,0-.44-0.54,1.13,1.13,0,0,0-.65-0.19,1.09,1.09,0,0,0-.89.43,1.74,1.74,0,0,0-.34,1.12V817Z" transform="translate(-852.92 -117.05)"/><path class="cls-5" d="M1065.9,815.05v0.63a1.46,1.46,0,0,1,.52-0.52,1.34,1.34,0,0,1,.69-0.18,1.11,1.11,0,0,1,.89.33,1.51,1.51,0,0,1,.29,1v2.43h-0.41v-2.43a1.14,1.14,0,0,0-.21-0.74,0.83,0.83,0,0,0-.66-0.24,1,1,0,0,0-.67.24,1.4,1.4,0,0,0-.43.64v2.53h-0.41v-3.7h0.39Z" transform="translate(-852.92 -117.05)"/><path class="cls-10" d="M1032.5,693.57q0,1.43,0,2.85a13.29,13.29,0,0,1-13.29-13.29h2.85A10.44,10.44,0,0,0,1032.5,693.57Z" transform="translate(-852.92 -117.05)"/><path class="cls-11" d="M993.6,653.49V632H960.86v21.49h9.62v493h7.65l0.08-361.22h0a5.25,5.25,0,0,0,5.23,4.92v-1a4.28,4.28,0,0,1-4.28-4.28h0V739.53h0.18a9,9,0,0,0,8.91,7.72v-2a7.05,7.05,0,0,1-7.05-7.05h0V677.75h0.4a9.69,9.69,0,0,0,9.25,6.82q0-1.43,0-2.85a6.84,6.84,0,0,1-6.8-6.23v-22h9.62Z" transform="translate(-852.92 -117.05)"/><polygon class="cls-10" points="145.94 514.95 145.94 536.44 155.56 536.44 155.56 728.45 128.56 774.45 128.56 1029.45 139.42 1029.45 139.08 774.45 166.08 728.45 166.21 728.45 166.21 566.26 169.06 566.26 169.06 536.44 178.68 536.44 178.68 514.95 145.94 514.95"/><line class="cls-10" x1="62.88" y1="740.9" x2="72.58" y2="740.9"/><polygon class="cls-1" points="93.09 730.45 91 730.45 113 774.95 113 1030.2 114.83 1030.2 114.83 774.95 93.09 730.45"/><polygon class="cls-8" points="88.09 730.45 86 730.45 108 774.95 108 1030.2 109.83 1030.2 109.83 774.95 88.09 730.45"/><polygon class="cls-3" points="77.48 730.45 75.2 730.45 97 774.95 97 1030.2 98.83 1030.2 98.83 774.95 77.48 730.45"/><polygon class="cls-9" points="82.98 730.45 79.32 730.45 101.32 774.95 101.35 774.95 101.35 1030.2 106.15 1030.2 106.15 774.95 82.98 730.45"/><polygon class="cls-6" points="72.55 730.9 62.88 730.9 84.88 775.4 84.83 775.4 84.83 1030.65 94.71 1030.65 94.71 775.4 72.55 730.9"/><circle class="cls-12" cx="114.83" cy="886.3" r="59.02"/></svg>