<svg id="Layer_1" data-name="Layer 1" xmlns="http://www.w3.org/2000/svg" viewBox="0 0 333.64 571.79"><defs><style>.cls-1{font-size:5px;fill:#3a3a3a;}.cls-1,.cls-2{font-family:Open Sans;font-weight:700;}.cls-2{font-size:8px;fill:#231f20;}.cls-3{fill:#8bd0c0;}.cls-4{fill:#709988;}.cls-4,.cls-6{opacity:0.7;}.cls-5,.cls-7{fill:#4c4f6e;}.cls-5{opacity:0.8;}.cls-6{fill:#ccdbdc;}.cls-8{fill:#dcdbdb;}</style></defs><title>sanky-salmon</title><text class="cls-1" transform="translate(5.97 32.31)">Lorem ipsum dolor sit <tspan x="0" y="7">amet, consectetur </tspan><tspan x="0" y="14">adipiscing elit, sed do </tspan><tspan x="0" y="21">eiusmod tempor </tspan><tspan x="0" y="28">incididunt ut labore et </tspan><tspan x="0" y="35">dolore magna aliqua. </tspan><tspan x="0" y="42">eu fugiat nulla</tspan></text><text class="cls-2" transform="translate(5.97 22.49)">Insert Fact</text><text class="cls-1" transform="translate(274.52 30.63)">Lorem ipsum dolor sit <tspan x="0" y="7">amet, consectetur </tspan><tspan x="0" y="14">adipiscing elit, sed do </tspan><tspan x="0" y="21">eiusmod tempor </tspan><tspan x="0" y="28">incididunt ut labore et </tspan><tspan x="0" y="35">dolore magna aliqua. </tspan><tspan x="0" y="42">eu fugiat nulla</tspan></text><text class="cls-2" transform="translate(273.52 20.81)">Insert Fact</text><path class="cls-3" d="M278.79,548.55v3.05H233.52A22.86,22.86,0,0,1,210.66,529l0.09-141a5,5,0,0,1,1.08-3.11L233,358.19a8,8,0,0,0,1.73-5c-0.22-30.2-.91-131.08-1-147.76,0.08-6.09.62-12.09,3.1-17.67l1.89-2,2-78.1h0a32.86,32.86,0,0,0,32.86,32.78v4.22l5.72-5.37,5.72-5.37-5.72-5.37-5.72-5.37v5.19a20.79,20.79,0,0,1-20.79-20.71h0.05v-0.06h6.85v-23h-42.1v23h7.3v191.9c0,2,4,2.8,4,5.94v46.8a5,5,0,0,1-1.11,3.14L204,384.88a5,5,0,0,0-1.11,3.14V656.38l4.12,0V530.87a26.61,26.61,0,0,0,26.52,24.48s45.27-.1,45.27-0.1v2.93l3-2.41,3-2.41-3-2.41Z" transform="translate(-18.03 -84.59)"/><path class="cls-4" d="M171.76,84.59v22.95h7.3l0.2,14.29v4c3.16,6.52,4.8,3.67,4.8,10.91L184.16,345v10.18a32,32,0,0,0,0,3.37l0.62,164.78a22.49,22.49,0,0,1-22.49,22.49H112.61v-6.74l-7.42,6-7.42,6,7.42,6,7.42,6v-7.78c6.71,0,49.69.11,49.69,0.16a32.08,32.08,0,0,0,31.46-25.81V656.38h8.29v-268L202,374.28l-2-161.07V194.43c0-3.64,5.51-6,5.51-6,1-3.51,1.49-80.87,1.49-80.87h6.85V84.59h-42.1Z" transform="translate(-18.03 -84.59)"/><path class="cls-5" d="M156.63,357.14a4,4,0,0,1-1-2.67c0-6.49,0-40.52,0-44,0.14-9.44,4.23-9.57,4.23-10.05l2-192.85h6.85v-23h-42.1v23h7.3v0h0.31c-0.21,13.12-12.62,23.76-25.65,24.32v-4.35L103,132.33l-5.51,4.75,5.51,4.75,5.51,4.75v-5.14c16.76-.52,32.48-13.09,34.81-29.34V238.71l1.91,3.34a21.85,21.85,0,0,1,2.84,8.65q0.25,2.51.25,5V354.3a7,7,0,0,0,1.81,4.7l24.41,27a3,3,0,0,1,.78,2V656.38h7.25V388.92a8,8,0,0,0-2.07-5.37Z" transform="translate(-18.03 -84.59)"/><rect class="cls-6" x="91.81" y="74.23" width="162.33" height="14.11"/><rect class="cls-6" x="91.81" y="127.23" width="162.33" height="13.93"/><rect class="cls-6" x="91.81" y="181.23" width="162.33" height="13.93"/><rect class="cls-6" x="91.81" y="242.23" width="162.33" height="13.93"/><circle class="cls-7" cx="145.39" cy="290.16"/><circle class="cls-8" cx="175.55" cy="376.11" r="59.02"/><rect class="cls-6" x="93.43" y="505.16" width="162.33" height="13.93"/><text class="cls-1" transform="translate(0 450.57)">Lorem ipsum dolor sit <tspan x="0" y="7">amet, consectetur </tspan><tspan x="0" y="14">adipiscing elit, sed do </tspan><tspan x="0" y="21">eiusmod tempor </tspan><tspan x="0" y="28">incididunt ut labore et </tspan><tspan x="0" y="35">dolore magna aliqua. </tspan><tspan x="0" y="42">eu fugiat nulla</tspan></text><text class="cls-2" transform="translate(0 440.75)">Insert Fact</text><text class="cls-1" transform="translate(269.47 453.82)">Lorem ipsum dolor sit <tspan x="0" y="7">amet, consectetur </tspan><tspan x="0" y="14">adipiscing elit, sed do </tspan><tspan x="0" y="21">eiusmod tempor </tspan><tspan x="0" y="28">incididunt ut labore et </tspan><tspan x="0" y="35">dolore magna aliqua. </tspan><tspan x="0" y="42">eu fugiat nulla</tspan></text><text class="cls-2" transform="translate(269.47 444)">Insert Fact</text></svg>