<svg id="Layer_1" data-name="Layer 1" xmlns="http://www.w3.org/2000/svg" xmlns:xlink="http://www.w3.org/1999/xlink" viewBox="0 0 188.45 651.05"><defs><style>.cls-1{fill:none;stroke:#606060;stroke-miterlimit:10;stroke-width:0.5px;}.cls-2{fill:#663f46;}.cls-2,.cls-3,.cls-4,.cls-5{opacity:0.9;}.cls-3{fill:#c9885e;}.cls-4{fill:#4b6e7c;}.cls-5{fill:#3a3b18;}</style></defs><title>SkillsPortfolio_EvanPalangio</title><line class="cls-1" x1="130.68" y1="41" x2="130.68"/><line class="cls-1" x1="14.43" y1="41.5" x2="14.43" y2="1.5"/><path class="cls-2" d="M1464.29,351.2l2.37-2-2.37-2-2.37-2v2.35h-61a8.52,8.52,0,0,1-8.52-8.52h0V227.82c0-.14,0-0.24,0-0.36a12.91,12.91,0,0,0,12.76,11h55.09v3.94l3.27-2.9,3.27-2.9-3.27-2.9-3.27-2.9v3.72h-55.09a9,9,0,0,1-8.92-8.19l0.15-.13h0V158.48h8.39v-23h-45.27v23h8.64a37.22,37.22,0,0,1-37.22,37.22H1292v-6.5l-6.85,5.69-6.85,5.69,6.85,5.69,6.85,5.69v-5.72h38.9a47.74,47.74,0,0,0,47.49-42.82V288.89a19.27,19.27,0,0,1-19.27,19.27v0h-71.82v-4.5l-4.27,3.54-4.27,3.54,4.27,3.54,4.27,3.54v-4.5h72v0a24.45,24.45,0,0,0,24.23-23.61h0V745.45h2.76V615.61a2.93,2.93,0,0,1,.14-1.06,11.1,11.1,0,0,0,11,9.6l64.1-.15v2.44l2.54-2.07,2.54-2.07-2.54-2.07-2.54-2.07v3h-64.1a8.11,8.11,0,0,1-8.11-8.11h0V447h0V342.56a4.25,4.25,0,0,1,.2-1.44,11.52,11.52,0,0,0,11.33,9.49v0h61v2.6Z" transform="translate(-1278.32 -94.5)"/><path class="cls-3" d="M1376.9,444l-30-23.8a11,11,0,0,1-4.16-8.62V158.48h13.46v-23h-63.82v23h13.46v9.63l-0.06.27,0,0.09a10.8,10.8,0,0,1-10.38,7.84h-11.86v-2.59l-2.41,2-2.41,2,2.41,2,2.41,2v-2.59h11.86A13.82,13.82,0,0,0,1308.8,169l0,59.14v1.76a16.7,16.7,0,0,1-16.34,13.26v0.06h-3.2v-5.54L1283.8,243l-5.48,5.29,5.48,5.29,5.48,5.29v-6h3.2a26.3,26.3,0,0,0,20.14-9.36c0.13,1,.21,5.06.21,6.1v29.2a12.63,12.63,0,0,1-12.29,9.76h-15.27v-3.5l-3.47,3-3.47,3,3.47,3,3.47,3v-3.5h15.27a17.59,17.59,0,0,0,13.81-6.7,5.68,5.68,0,0,0,1.77-2.71,17.5,17.5,0,0,0,1.63-4.45,2.59,2.59,0,0,1,.08.9v59.78a15.82,15.82,0,0,1-15.58,13.14h-17.53v-4.22l-3.2,3.11-3.2,3.11,3.2,3.11,3.2,3.11v-4.22h17.53a19.82,19.82,0,0,0,18.57-12.93c0,0.2,0,.39,0,0.61v68.63c0,3.17,2.5,6.15,5.05,8l32.33,23.91a4,4,0,0,1,1.62,3.22l0.2,139.45a24.51,24.51,0,0,1-24.51,24.31H1295.3v-6.62l-8,6.45-8,6.45,8,6.45,8,6.45v-7.48l40.23-.16a36,36,0,0,0,34.09-24.39V745.45h11.06V451.82A10,10,0,0,0,1376.9,444Zm-64.06-165.19v0h0Zm5,59.32,0.21,0.21a15.86,15.86,0,0,1-.21,2.06v-2.27Z" transform="translate(-1278.32 -94.5)"/><path class="cls-4" d="M1462,357.5v2.11h-25.44A11.79,11.79,0,0,1,1424.85,348V241.07a10.57,10.57,0,0,0,10.26,8h28.61V251l1.52-1.48,1.52-1.48-1.52-1.48-1.52-1.48v2h-28.61a8.57,8.57,0,0,1-8.48-7.36c0.07-.05.22-74.1,0.22-74.1,3.4,20.2,9.83,35.63,30.94,35.89v3.86l4.3-3.57,4.3-3.57-4.3-3.57-4.3-3.57v4.34c-20.18-.3-25.45-16.74-25.46-37h0.61v0h6.79v-23h-31.26v23h6.79V416.58a6,6,0,0,1-1.43,3.89l-21.61,25.39a4,4,0,0,0-1,2.59v297.1h6.54V447.69a2,2,0,0,1,.45-1.26l20.06-24.61a11,11,0,0,0,2.48-6.95l0-65a1.91,1.91,0,0,1,.19-1,15.66,15.66,0,0,0,15.63,14.75v0H1462v1.83l2.37-2,2.37-2-2.37-2Zm-37-119h-0.11C1424.93,238.48,1425,238.48,1425,238.53Z" transform="translate(-1278.32 -94.5)"/><path class="cls-5" d="M1465.64,258.1l1-.9-1-.9-1-.9v1.34h-9.09a5.1,5.1,0,0,1-5.1-5.1s-0.08-13.8-.08-13.8V158.62h0.09a10,10,0,0,0,10,9.82v0h3.38v2l1.45-1.2,1.45-1.2-1.45-1.2-1.45-1.2v2h-3.38a9.14,9.14,0,0,1-9.14-9.11h3.6v-23h-11.54v23h3.35V388.06a2,2,0,0,1-.44,1.26l-46.11,57.21a2,2,0,0,0-.44,1.26V745.55h1V447.43a1,1,0,0,1,.22-0.63l46.34-57.48a2,2,0,0,0,.44-1.26V340.78a1.1,1.1,0,0,1,.09-0.51,5.26,5.26,0,0,0,5.18,4.41v0h11.79v1l1-.8,1-.8-1-.8-1-.8v1.18H1453a4.27,4.27,0,0,1-4.27-4.27h0V292.2h0a9.19,9.19,0,0,0,9.19,9.16v0h5.91v2.08l1.42-1.18,1.42-1.18-1.42-1.18-1.42-1.18v2h-5.91a8.52,8.52,0,0,1-8.52-8.53h0V252.73c0-.39.08-0.16,0.22,0.15a6.1,6.1,0,0,0,6,4.84v0h9.09V259Z" transform="translate(-1278.32 -94.5)"/><image width="3192" height="3221" transform="translate(38.61 363.46) scale(0.04)" xlink:href="../../../Documents/food pngs/kottbullar.png"/></svg>